<?xml version="1.0"?><!DOCTYPE svg  PUBLIC '-//W3C//DTD SVG 1.1//EN'  'http://www.w3.org/Graphics/SVG/1.1/DTD/svg11.dtd'><svg enable-background="new 0 0 50 50" id="Layer_1" version="1.1" viewBox="0 0 50 50" xml:space="preserve" xmlns="http://www.w3.org/2000/svg" xmlns:xlink="http://www.w3.org/1999/xlink"><g><path d="M32.6,31.6l0.9,11.1c0,0.4,1.1,0.4,1.1,0l0.2-11.1L32.6,31.6z" fill="#D18530"/><path d="M34,34.1l3.4,14.7c0.1,0.5,1.5,0.3,1.5-0.2l-2-14.8L34,34.1z" fill="#ECAC55"/><path d="M17,31.6l-0.9,11.1c0,0.4-1.1,0.4-1.1,0l-0.2-11.1L17,31.6z" fill="#D18530"/><path d="M15.6,34.1l-3.4,14.7c-0.1,0.5-1.5,0.3-1.5-0.2l2-14.8L15.6,34.1z" fill="#ECAC55"/><path d="M43,27.7c-0.3,1.4-0.6,3.6-1.8,5.1c-1.1,1.7-2.9,1.7-4.3,1.8c-6.9,0.4-15.9,0.8-25-0.1   C8.5,34.3,7.6,31,7,27.7c-0.4-2.2-2-6.9-1.5-7.8s3.1-2.1,3.7-2.6c0.1-0.1,0.3-0.3,0.4-0.6C11.3,12.8,12,2.8,12,2.3   c0-1.3,1.9-1.6,3.6-1.1c2.7,0.7,13.4,1,17.4,0c1.8-0.5,3.6-0.2,3.6,1.1c0,0.4,0.7,10.4,2.4,14.3c0,0,0,0,0,0.1   c0.1,0.3,0.3,0.5,0.4,0.6c0.6,0.5,4.5,1.6,5,2.6S43.4,25.6,43,27.7z" fill="#6B5C54"/><path d="M9.6,16.7c0.7-0.2,1.6,0,2.2,0.5c1.7,1.3,2.3,4,2.2,6.2c-0.5-1.9-0.9-4.5-2.5-5.9   C11,17,10.3,16.7,9.6,16.7z" fill="#5F504A" opacity="0.5"/><path d="M39.1,16.7c-0.7,0-1.3,0.3-1.7,0.8c-1.4,1.3-1.9,3.6-2.4,5.5c0,0.1,0,0.1,0,0.2   c0,0.1,0,0.1,0,0.2v-0.4c0-2,0.5-4.6,2.2-5.8C37.7,16.7,38.4,16.5,39.1,16.7C39.1,16.7,39.1,16.7,39.1,16.7z" fill="#5F504A" opacity="0.5"/><path d="M13.7,29.2c-0.6,0.8-1.4,1.5-2.2,2.2C10.7,32,9.9,32.6,8.9,33C10,31.5,12,29.9,13.7,29.2z" fill="#5F504A" opacity="0.5"/><path d="M41.2,32.8C41.2,32.9,41.2,32.9,41.2,32.8c-1.4-0.5-3.8-2.4-4.9-3.9c0.7,0.3,1.2,0.6,2.7,1.8   C39.9,31.3,40.6,32,41.2,32.8z" fill="#5F504A" opacity="0.5"/><path d="M38,26.3c0,0.6-0.1,2.4-2,3c-1.9,0.6-11,0.4-11,0.4s-9.1,0.2-11-0.4c-1.9-0.6-2-2.4-2-3   c0-0.6,0.5-1.5,1.1-2.1c0.6-0.6,1.6-1,2.9-1.4c1.3-0.4,9-0.3,9-0.3s7.6-0.1,9,0.3c1.3,0.4,2.3,0.8,2.9,1.4   C37.6,24.8,38,25.7,38,26.3z" fill="#6B5C54"/><path d="M12,26.5c0.3,3.1,3,2.9,5.7,2.9c0.2,0,14.6,0,14.8,0c2.9-0.1,5.3,0.1,5.7-2.9   c0.1,3.4-3.2,3.3-5.6,3.5c-3.1,0.2-11.7,0.2-14.8,0C15.2,29.8,11.9,29.9,12,26.5z" fill="#5F504A" opacity="0.5"/><path d="M38,26.4c-0.2-2.3-3.1-3.3-5.7-3.5c-2.4-0.1-4.9-0.1-7.4,0c-2.5,0-4.9-0.1-7.4,0   c-2.6,0.1-5.5,1.2-5.7,3.5c-0.1-2.5,3.1-3.8,5.6-4c2.5-0.2,4.9-0.2,7.4-0.2c2.5,0,4.9,0,7.4,0.2C35.2,22.7,38.1,24.1,38,26.4z" fill="#5F504A" opacity="0.5"/><path d="M18.4,9.1c0,0.3-0.3,0.6-0.6,0.6c-0.3,0-0.6-0.3-0.6-0.6c0-0.3,0.3-0.6,0.6-0.6   C18.1,8.6,18.4,8.8,18.4,9.1z" fill="#5F504A" opacity="0.5"/><path d="M18,12.9c0,0.3-0.3,0.6-0.6,0.6c-0.3,0-0.6-0.3-0.6-0.6c0-0.3,0.3-0.6,0.6-0.6   C17.7,12.4,18,12.6,18,12.9z" fill="#5F504A" opacity="0.5"/><path d="M17.6,16.7c0,0.3-0.3,0.6-0.6,0.6c-0.3,0-0.6-0.3-0.6-0.6c0-0.3,0.3-0.6,0.6-0.6   C17.3,16.2,17.6,16.4,17.6,16.7z" fill="#5F504A" opacity="0.5"/><path d="M30,9.1c0,0.3,0.3,0.6,0.6,0.6c0.3,0,0.6-0.3,0.6-0.6c0-0.3-0.3-0.6-0.6-0.6   C30.2,8.6,30,8.8,30,9.1z" fill="#5F504A" opacity="0.5"/><path d="M30.4,12.9c0,0.3,0.3,0.6,0.6,0.6c0.3,0,0.6-0.3,0.6-0.6c0-0.3-0.3-0.6-0.6-0.6   C30.6,12.4,30.4,12.6,30.4,12.9z" fill="#5F504A" opacity="0.5"/><path d="M30.8,16.7c0,0.3,0.3,0.6,0.6,0.6c0.3,0,0.6-0.3,0.6-0.6c0-0.3-0.3-0.6-0.6-0.6   C31,16.2,30.8,16.4,30.8,16.7z" fill="#5F504A" opacity="0.5"/></g></svg>