<?xml version="1.0"?><svg viewBox="0 0 512 512" xmlns="http://www.w3.org/2000/svg"><defs><style>.cls-1{fill:#8e4b36;}.cls-2{fill:#aa644b;}.cls-3{fill:#349dd1;}.cls-4{fill:#fd3;}.cls-5{fill:#333538;}.cls-6{fill:#ed5167;}.cls-7{fill:#e6e6e6;}.cls-8{fill:#72d3b8;}.cls-9{fill:#ff8a33;}</style></defs><g data-name="1 workspace" id="_1_workspace"><path class="cls-1" d="M378.22,500h0a18.83,18.83,0,0,1-8.9-25.25l28.94-59.34,34.41,16.44-28.93,59.34A19.2,19.2,0,0,1,378.22,500Z"/><path class="cls-1" d="M137.72,500h0a18.82,18.82,0,0,0,8.9-25.25l-28.93-59.34L83.27,431.85l28.94,59.34A19.19,19.19,0,0,0,137.72,500Z"/><path class="cls-2" d="M60.51,34.21h393a0,0,0,0,1,0,0V436.52a20.24,20.24,0,0,1-20.24,20.24H80.74a20.24,20.24,0,0,1-20.24-20.24V34.21A0,0,0,0,1,60.51,34.21Z"/><rect class="cls-1" height="332.98" rx="18.05" transform="translate(411.67 -102.33) rotate(90)" width="163.92" x="175.04" y="-11.82"/><rect class="cls-1" height="332.98" rx="18.05" transform="translate(601.79 87.8) rotate(90)" width="163.92" x="175.04" y="178.31"/><rect class="cls-1" height="43.27" rx="21.63" width="459.79" x="27.1" y="7.57"/><rect class="cls-3" height="146.53" rx="15.79" width="62.29" x="115.9" y="90.1"/><rect class="cls-4" height="19.03" width="62.29" x="115.9" y="116.29"/><rect class="cls-4" height="19.03" width="62.29" x="115.9" y="191.4"/><rect class="cls-5" height="123.92" rx="15.79" width="75.51" x="241.02" y="112.71"/><rect class="cls-3" height="19.03" width="75.51" x="241.02" y="138.91"/><rect class="cls-3" height="19.03" width="75.51" x="241.02" y="191.4"/><rect class="cls-5" height="123.92" rx="15.79" width="75.51" x="105.05" y="302.84"/><rect class="cls-3" height="19.03" width="75.51" x="105.05" y="329.03"/><rect class="cls-6" height="146.53" rx="15.79" width="46.94" x="178.19" y="90.1"/><rect class="cls-6" height="146.53" rx="15.79" width="46.94" x="180.57" y="280.22"/><rect class="cls-7" height="19.03" width="46.94" x="180.57" y="306.42"/><rect class="cls-7" height="19.03" width="46.94" x="180.57" y="381.53"/><rect class="cls-8" height="146.53" rx="15.79" width="46.94" x="227.5" y="280.22"/><rect class="cls-7" height="36.48" width="91.67" x="299.35" y="384.76"/><path class="cls-9" d="M317.36,415.53h74.43c7.08,0,7.66,10.68.59,11.19-.33,0-.66,0-1,0h-86a13.9,13.9,0,0,1-13.91-13.91V393.73a13.91,13.91,0,0,1,13.91-13.91h86c.34,0,.67,0,1,0,7.07.5,6.49,11.18-.59,11.18H317.36a10.7,10.7,0,0,0-10.71,10.7v3.09A10.7,10.7,0,0,0,317.36,415.53Z"/><rect class="cls-7" height="36.48" transform="translate(687.43 712.13) rotate(-180)" width="91.67" x="297.88" y="337.83"/><path class="cls-5" d="M371.54,368.6H297.11c-7.08,0-7.66,10.68-.59,11.19.33,0,.67,0,1,0h86a13.9,13.9,0,0,0,13.91-13.91V346.8a13.91,13.91,0,0,0-13.91-13.91h-86c-.33,0-.67,0-1,0-7.07.5-6.49,11.18.6,11.18h74.42a10.7,10.7,0,0,1,10.71,10.7v3.09A10.7,10.7,0,0,1,371.54,368.6Z"/><rect class="cls-4" height="146.53" rx="15.79" transform="translate(-35.91 143.85) rotate(-21.68)" width="46.94" x="334.23" y="92.44"/><rect class="cls-8" height="19.03" transform="translate(-24 136.26) rotate(-21.68)" width="46.94" x="320.36" y="121.29"/><rect class="cls-8" height="19.03" transform="translate(-47.82 151.44) rotate(-21.68)" width="46.94" x="348.1" y="191.09"/></g></svg>