<?xml version="1.0"?><!DOCTYPE svg  PUBLIC '-//W3C//DTD SVG 1.1//EN'  'http://www.w3.org/Graphics/SVG/1.1/DTD/svg11.dtd'><svg height="100%" style="fill-rule:evenodd;clip-rule:evenodd;stroke-linejoin:round;stroke-miterlimit:2;" version="1.1" viewBox="0 0 256 256" width="100%" xml:space="preserve" xmlns="http://www.w3.org/2000/svg" xmlns:serif="http://www.serif.com/" xmlns:xlink="http://www.w3.org/1999/xlink"><g id="Couch" transform="matrix(1,0,0,1,-255,-261.97)"><g transform="matrix(1,0,0,1,316,431.971)"><path d="M0,-136L-0.364,-132.182L-4,-134L-52,-110L-36,-102L16,-128L160,-56L172,-62L12,-142L0,-136ZM132,-18L140,-14L188,-38L172,-46L132,-26L-4,-94L-36,-78L132,6L132,-18Z" style="fill:white;"/></g><g transform="matrix(1,0,0,1,476,409.971)"><path d="M0,-34L-160,-114L-164,-72L-28,-4L-2,-17L0,-34ZM-208,-22L-208,-14L-204,-12L-200,-18L-28,68L-24,78L-20,80L-20,8L-36,0L-36,24L-196,-56L-196,-80L-212,-88L-212,-24L-208,-22Z" style="fill:rgb(53,249,227);"/></g><g transform="matrix(1,0,0,1,377.764,463.97)"><path d="M0,-147.999L-9.764,-143.117L-59.528,-167.999L-49.764,-172.881L0,-147.999ZM-111.528,-141.999L-97.764,-135.117L-64.307,-151.846L-63.188,-163.593L-65.764,-164.881L-111.528,-141.999ZM-7.528,-141.999L46.41,-115.03L56.174,-119.912L2.236,-146.881L-7.528,-141.999ZM-64.703,-126.587L-14.773,-101.622L-10.827,-141.413L-60.907,-166.452L-64.703,-126.587ZM48.646,-113.912L98.236,-89.117L108,-93.999L58.41,-118.794L48.646,-113.912ZM-95.528,-109.999L-45.764,-85.117L-16,-99.999L-65.764,-124.881L-95.528,-109.999ZM-97.422,-108.71L-100.304,-104.387L-50.053,-79.262L-47.215,-83.606L-97.422,-108.71ZM-12.858,-100.664L41.243,-73.613L45.189,-113.404L-8.912,-140.455L-12.858,-100.664ZM-108.764,-74.381L-103.224,-71.611L-106.106,-67.288L-108.764,-68.617L-108.764,-74.381ZM-100.764,-102.381L-100.764,-88.617L-50.764,-63.617L-50.764,-77.381L-100.764,-102.381ZM43.158,-72.656L70.236,-59.117L95.306,-71.652L97.161,-87.419L93.173,-89.412L47.104,-112.447L43.158,-72.656ZM-43.528,-83.999L10.41,-57.03L40.174,-71.912L-13.764,-98.881L-43.528,-83.999ZM-48.252,-78.361L6.033,-51.219L8.871,-55.564L-45.414,-82.706L-48.252,-78.361ZM110.236,-76.881L70.683,-57.105L66.409,-54.968L64.472,-53.999L78.236,-47.117L124,-69.999L110.236,-76.881ZM-48.764,-62.617L5.236,-35.617L5.236,-49.381L-48.764,-76.381L-48.764,-62.617ZM61.791,-54.894L68,-57.999L42.41,-70.794L12.646,-55.912L61.236,-31.617L61.236,-53.999C61.238,-54.361 61.449,-54.745 61.791,-54.894M60.776,-29.611L10.672,-54.663L7.833,-50.318L57.894,-25.288L60.776,-29.611ZM7.236,-34.617L57.236,-9.617L57.236,-23.381L7.236,-48.381L7.236,-34.617ZM-98.764,-133.381L-112.764,-140.381L-112.764,-78.617L77.236,16.383L77.236,-45.381L63.236,-52.381L63.236,-9.491C63.236,-8.447 63.244,-7.402 63.236,-6.358C63.233,-6.038 63.255,-5.733 63.073,-5.451C62.78,-5.045 62.253,-4.873 61.789,-5.105L-102.211,-87.105C-102.55,-87.274 -102.764,-87.62 -102.764,-87.999L-102.764,-103.999C-102.763,-104.196 -102.705,-104.39 -102.596,-104.554L-98.764,-110.302L-98.764,-133.381ZM75.023,23.277L77.236,24.383L77.236,18.619L72.141,16.072L75.023,23.277ZM-62.221,-168.889C-62.525,-168.727 -62.727,-168.435 -62.76,-168.091L-62.985,-165.727L-65.317,-166.893C-65.598,-167.034 -65.93,-167.034 -66.211,-166.893L-114.209,-142.894C-114.545,-142.717 -114.759,-142.391 -114.764,-142.007L-114.764,-77.999C-114.764,-77.62 -114.55,-77.274 -114.211,-77.105L-110.764,-75.381L-110.764,-67.999C-110.764,-67.62 -110.55,-67.274 -110.211,-67.105L-106.211,-65.105C-105.76,-64.879 -105.212,-65.025 -104.932,-65.444L-101.422,-70.71L69.449,14.725L73.308,24.372C73.398,24.6 73.57,24.786 73.789,24.895L77.786,26.894C78.067,27.035 78.404,27.035 78.686,26.894L82.683,24.895C82.902,24.786 83.074,24.6 83.164,24.372L87.023,14.725L113.894,1.29L117.404,6.556C117.684,6.975 118.232,7.121 118.683,6.895L122.683,4.895C123.022,4.726 123.236,4.38 123.236,4.001L123.236,-3.381L126.683,-5.105C127.022,-5.274 127.236,-5.62 127.236,-5.999L127.236,-69.999L127.235,-70.043C127.21,-70.389 127.014,-70.75 126.681,-70.894L111.236,-78.617L111.236,-93.999C111.234,-94.358 111.021,-94.747 110.681,-94.894L-49.317,-174.893C-49.598,-175.034 -49.93,-175.034 -50.211,-174.893L-62.211,-168.893C-62.214,-168.892 -62.218,-168.89 -62.221,-168.889" style="fill:rgb(78,33,188);"/></g></g></svg>