<?xml version="1.0"?><svg enable-background="new 0 0 512 512" id="Layer_2" version="1.1" viewBox="0 0 512 512" xml:space="preserve" xmlns="http://www.w3.org/2000/svg" xmlns:xlink="http://www.w3.org/1999/xlink"><g><path d="   M279.094,315.171h194.105c9.952,0,18.02-8.068,18.02-18.02v0c0-9.952-8.068-18.02-18.02-18.02H289.872   c-29.727,0-58.657-9.614-82.471-27.406l-16.223-12.121c-23.814-17.792-52.744-27.406-82.471-27.406H41.74   c-9.952,0-18.02,8.068-18.02,18.02v1.03c0,9.952,8.068,18.02,18.02,18.02h79.805" fill="none" stroke="#474747" stroke-linecap="round" stroke-linejoin="round" stroke-miterlimit="10" stroke-width="15"/><path d="   M464.446,317.231v12.18c0,62.655-50.792,113.448-113.448,113.448H166c-62.655,0-113.448-50.792-113.448-113.448v-80.143" fill="none" stroke="#474747" stroke-linecap="round" stroke-linejoin="round" stroke-miterlimit="10" stroke-width="15"/><g><path d="    M413.708,451.86c1.533,3.673,2.341,7.642,2.341,11.686v5.914c0,12.606,10.219,22.825,22.825,22.825h16.305    c7.393,0,13.387-5.993,13.387-13.387v0c0-7.393-5.993-13.387-13.387-13.387h-15.446" fill="none" stroke="#474747" stroke-linecap="round" stroke-linejoin="round" stroke-miterlimit="10" stroke-width="15"/><path d="    M423.978,417.736l11.164,13.014c4.293,5.049,6.651,8.617,6.651,15.244v19.519" fill="none" stroke="#474747" stroke-linecap="round" stroke-linejoin="round" stroke-miterlimit="10" stroke-width="15"/></g><g><path d="    M104.32,451.86c-1.533,3.673-2.341,7.642-2.341,11.686v5.914c0,12.606-10.219,22.825-22.825,22.825H62.849    c-7.393,0-13.387-5.993-13.387-13.387v0c0-7.393,5.993-13.387,13.387-13.387h15.446" fill="none" stroke="#474747" stroke-linecap="round" stroke-linejoin="round" stroke-miterlimit="10" stroke-width="15"/><path d="    M94.051,417.736l-11.164,13.014c-4.293,5.049-6.651,8.617-6.651,15.244v19.519" fill="none" stroke="#474747" stroke-linecap="round" stroke-linejoin="round" stroke-miterlimit="10" stroke-width="15"/></g><path d="   M470.625,261.11c0-16.208-13.139-29.347-29.347-29.347c-9.421,0-17.799,4.445-23.169,11.345   c-5.37-6.901-13.748-11.345-23.169-11.345c-6.348,0-12.221,2.022-17.022,5.448c-0.653-15.63-13.525-28.103-29.316-28.103   c-13.17,0-24.314,8.675-28.029,20.623c-3.959-1.99-8.427-3.118-13.16-3.118c-6.754,0-12.971,2.287-17.93,6.122   c-4.781-9.724-14.781-16.419-26.349-16.419c-1.042,0-2.07,0.056-3.084,0.162c1.646-3.666,2.569-7.726,2.569-12.004   c0-16.208-13.139-29.347-29.347-29.347c-14.607,0-26.717,10.673-28.968,24.645c-5.239-8.017-14.287-13.318-24.579-13.318   c-6.358,0-12.238,2.028-17.044,5.464c-5.296-7.654-14.133-12.672-24.146-12.672c-16.208,0-29.347,13.139-29.347,29.347" fill="none" stroke="#474747" stroke-linecap="round" stroke-linejoin="round" stroke-miterlimit="10" stroke-width="15"/><circle cx="384.642" cy="154.018" fill="none" r="29.347" stroke="#474747" stroke-linecap="round" stroke-linejoin="round" stroke-miterlimit="10" stroke-width="15"/><circle cx="446.426" cy="99.442" fill="none" r="18.02" stroke="#474747" stroke-linecap="round" stroke-linejoin="round" stroke-miterlimit="10" stroke-width="15"/><circle cx="337.274" cy="44.866" fill="none" r="18.02" stroke="#474747" stroke-linecap="round" stroke-linejoin="round" stroke-miterlimit="10" stroke-width="15"/><path d="   M244.083,224.555c0,0,7.208-7.208,16.476-8.238" fill="none" stroke="#474747" stroke-linecap="round" stroke-linejoin="round" stroke-miterlimit="10" stroke-width="15"/></g></svg>