<?xml version="1.0"?><svg viewBox="0 0 64 64" xmlns="http://www.w3.org/2000/svg"><defs><style>.cls-1{fill:#d3843d;}.cls-2{fill:#995f5b;}.cls-3{fill:#efb856;}.cls-4{fill:#ffd782;}</style></defs><g id="Filledoutline"><rect class="cls-1" height="50" width="4" x="7" y="7"/><polygon class="cls-1" points="57 7 57 11 57 57 53 57 53 7 57 7"/><rect class="cls-2" height="4" width="54" x="5" y="57"/><rect class="cls-2" height="4" width="54" x="5" y="3"/><rect class="cls-2" height="4" width="42" x="11" y="21"/><rect class="cls-2" height="4" width="42" x="11" y="39"/><rect class="cls-3" height="10" width="4" x="11" y="11"/><rect class="cls-4" height="10" width="4" x="15" y="11"/><rect class="cls-3" height="10" width="4" x="19" y="11"/><rect class="cls-4" height="10" width="4" x="23" y="11"/><rect class="cls-4" height="10" width="4" x="37" y="11"/><rect class="cls-3" height="10" width="4" x="41" y="11"/><rect class="cls-4" height="10" width="4" x="45" y="11"/><rect class="cls-3" height="10" width="4" x="49" y="11"/><rect class="cls-3" height="4.24264" transform="translate(-1.94113 27.31371) rotate(-45)" width="9.89949" x="27.05025" y="13.87868"/><rect class="cls-4" height="9.89949" transform="translate(-17.01219 26.92893) rotate(-45)" width="4.24264" x="21.87868" y="29.05025"/><rect class="cls-4" height="9.89949" transform="translate(-30.3259 30.7868) rotate(-45)" width="4.24264" x="19.87868" y="47.05025"/><rect class="cls-3" height="9.89949" transform="translate(-32.08326 26.54416) rotate(-45)" width="4.24264" x="13.87868" y="47.05025"/><rect class="cls-4" height="10" width="4" x="11" y="29"/><rect class="cls-3" height="10" width="4" x="15" y="29"/><rect class="cls-4" height="10" width="4" x="33" y="29"/><rect class="cls-3" height="10" width="4" x="29" y="29"/><rect class="cls-3" height="10" width="4" x="37" y="29"/><rect class="cls-4" height="10" width="4" x="41" y="29"/><rect class="cls-3" height="10" width="4" x="45" y="29"/><rect class="cls-4" height="10" width="4" x="49" y="29"/><rect class="cls-4" height="10" width="4" x="33" y="47"/><rect class="cls-3" height="10" width="4" x="29" y="47"/><rect class="cls-3" height="10" width="4" x="37" y="47"/><rect class="cls-4" height="10" width="4" x="41" y="47"/><rect class="cls-3" height="10" width="4" x="45" y="47"/><rect class="cls-4" height="10" width="4" x="49" y="47"/><path d="M4,8H6V56H4v6H60V56H58V8h2V2H4ZM8,8h2V56H8ZM46,56V48h2v8Zm-4,0V48h2v8Zm-4,0V48h2v8Zm-4,0V48h2v8Zm-4,0V48h2v8Zm20-8h2v8H50Zm2-2H29a1,1,0,0,0-1,1v9H26.41406l1.293-1.293a.99963.99963,0,0,0,0-1.41406l-7-7a.99962.99962,0,0,0-1.41406,0L17,48.58594l-2.293-2.293a.99962.99962,0,0,0-1.41406,0L12,47.58594V44H52ZM12,12h2v8H12Zm4,0h2v8H16Zm4,0h2v8H20Zm4,0h2v8H24Zm4.41406,6L34,12.41406,35.58594,14,30,19.58594ZM36,16.41406V20H32.41406ZM42,12h2v8H42Zm4,0h2v8H46ZM12,22H52v2H12Zm28-2H38V12h2ZM12,30h2v8H12Zm4,0h2v8H16Zm18,0h2v8H34Zm4,0h2v8H38Zm4,0h2v8H42Zm4,0h2v8H46ZM12,40H52v2H12Zm20-2H30V30h2Zm-6-.41406L20.41406,32,22,30.41406,27.58594,36ZM23.58594,38H20V34.41406ZM12,52.41406,15.58594,56H12Zm4.293-1.707L19.58594,54,18,55.58594,12.41406,50,14,48.41406ZM21.707,53.293,18.41406,50,20,48.41406,25.58594,54,24,55.58594ZM21,55.41406,21.58594,56H20.41406ZM50,38V30h2v8Zm2-10H29a1,1,0,0,0-1,1v4.58594l-5.293-5.293a.99962.99962,0,0,0-1.41406,0L20,29.58594V29a1,1,0,0,0-1-1H12V26H52Zm-2-8V12h2v8Zm2-10H37a1,1,0,0,0-1,1v.58594l-1.293-1.293a.99962.99962,0,0,0-1.41406,0L28,15.58594V11a1,1,0,0,0-1-1H12V8H52Zm6,50H6V58H58Zm-2-4H54V8h2ZM6,4H58V6H6Z"/></g></svg>