<?xml version="1.0"?><svg id="icons" viewBox="0 0 340 340" xmlns="http://www.w3.org/2000/svg"><title/><path d="M271.813,113.951a42.053,42.053,0,0,0-41.89-38.56H111.286a42.053,42.053,0,0,0-41.89,38.56c-1.828,21.745-3.478,50.671-3.045,81.4H274.858C275.291,164.622,273.641,135.7,271.813,113.951Z" style="fill:#6f99dd"/><path d="M273.286,134.181h-1.751a23.809,23.809,0,0,0-23.653,21.092h0a13.718,13.718,0,0,1-13.629,12.153h-127.3a13.718,13.718,0,0,1-13.629-12.153h0a23.809,23.809,0,0,0-23.653-21.092H67.923c-1.124,18.163-1.881,39.2-1.572,61.171H274.858C275.167,173.379,274.41,152.344,273.286,134.181Z" style="fill:#3c3e4f"/><polygon points="265.758 209.148 74.242 209.148 77.226 264.609 262.774 264.609 265.758 209.148" style="fill:#6f99dd"/><path d="M113.021,95.8a3.482,3.482,0,1,0-4.924,4.924l5.923,5.923-5.923,5.923a3.482,3.482,0,1,0,4.924,4.924l5.923-5.923,5.923,5.923a3.482,3.482,0,0,0,4.925-4.924Z" style="fill:#3c3e4f"/><path d="M126.605,102.468a3.47,3.47,0,0,0,2.462-1.021l.725-.725a3.481,3.481,0,1,0-4.925-4.922l-.725.725a3.482,3.482,0,0,0,2.463,5.943Z" style="fill:#3c3e4f"/><path d="M164.077,95.8a3.482,3.482,0,0,0-4.924,4.924l5.923,5.923-5.923,5.923a3.482,3.482,0,1,0,4.924,4.924L170,111.57l5.923,5.923a3.482,3.482,0,0,0,4.924-4.924Z" style="fill:#3c3e4f"/><path d="M175.922,95.8l-.724.725a3.481,3.481,0,1,0,4.925,4.922l.725-.725a3.482,3.482,0,0,0-4.926-4.922Z" style="fill:#3c3e4f"/><path d="M215.132,95.8a3.482,3.482,0,0,0-4.924,4.924l5.924,5.923-5.924,5.923a3.482,3.482,0,1,0,4.924,4.924l5.924-5.923,5.923,5.923a3.482,3.482,0,1,0,4.924-4.924Z" style="fill:#3c3e4f"/><path d="M228.716,102.468a3.473,3.473,0,0,0,2.463-1.021l.725-.725a3.482,3.482,0,1,0-4.926-4.922l-.725.725a3.482,3.482,0,0,0,2.463,5.943Z" style="fill:#3c3e4f"/><path d="M137.919,131.162a3.482,3.482,0,0,0-4.925,4.924l5.924,5.924L133,147.932a3.482,3.482,0,0,0,4.923,4.925l5.924-5.923,5.923,5.923a3.482,3.482,0,0,0,4.924-4.925Z" style="fill:#3c3e4f"/><path d="M151.5,137.831a3.47,3.47,0,0,0,2.463-1.021l.725-.725a3.482,3.482,0,0,0-4.926-4.922l-.725.725a3.482,3.482,0,0,0,2.463,5.943Z" style="fill:#3c3e4f"/><path d="M188.973,131.162a3.481,3.481,0,0,0-4.923,4.924l5.923,5.923-5.923,5.923a3.482,3.482,0,0,0,4.923,4.925l5.924-5.924,5.924,5.924a3.482,3.482,0,0,0,4.923-4.925Z" style="fill:#3c3e4f"/><path d="M200.82,131.163l-.725.725a3.482,3.482,0,1,0,4.926,4.922l.724-.725a3.481,3.481,0,1,0-4.925-4.922Z" style="fill:#3c3e4f"/><path d="M284.927,143.784h22.694a22.152,22.152,0,0,1,22.152,22.152v5.3a22.152,22.152,0,0,1-22.152,22.152v57.985a13.234,13.234,0,0,1-13.233,13.234H262.774V165.936A22.152,22.152,0,0,1,284.927,143.784Z" style="fill:#6f99dd"/><path d="M55.074,143.784H32.379a22.152,22.152,0,0,0-22.152,22.152v5.3A22.152,22.152,0,0,0,32.379,193.39v57.985a13.234,13.234,0,0,0,13.233,13.234H77.226V165.936A22.152,22.152,0,0,0,55.074,143.784Z" style="fill:#6f99dd"/><path d="M93.416,181.557H246.585a16.189,16.189,0,0,1,16.189,16.189v27.681a0,0,0,0,1,0,0H77.226a0,0,0,0,1,0,0V197.746A16.189,16.189,0,0,1,93.416,181.557Z" style="fill:#a2c4f9"/><path d="M307.621,140.3H284.927a25.54,25.54,0,0,0-7.737,1.2c-.493-9.219-1.127-18.559-1.908-27.838A45.26,45.26,0,0,0,229.924,71.91H111.286a45.263,45.263,0,0,0-45.36,41.749c-.411,4.892-1.362,19.943-1.888,28.264a25.5,25.5,0,0,0-8.965-1.621H32.379A25.663,25.663,0,0,0,6.745,165.936v5.3a25.675,25.675,0,0,0,22.153,25.4v54.738A16.734,16.734,0,0,0,45.613,268.09H294.388A16.733,16.733,0,0,0,311.1,251.375V196.637a25.675,25.675,0,0,0,22.153-25.4v-5.3A25.663,25.663,0,0,0,307.621,140.3ZM70.969,142.667c.52-8.229,1.487-23.545,1.9-28.425a38.341,38.341,0,0,1,38.42-35.369H229.924a38.34,38.34,0,0,1,38.419,35.369c.858,10.206,1.544,20.488,2.051,30.593a25.62,25.62,0,0,0-11.1,21.1v16.82a19.573,19.573,0,0,0-12.707-4.681H93.416a19.576,19.576,0,0,0-12.708,4.681v-16.82a25.6,25.6,0,0,0-9.931-20.24ZM35.861,251.375v-54.5H46.443a3.482,3.482,0,1,0,0-6.963H32.379a18.692,18.692,0,0,1-18.671-18.671v-5.3a18.692,18.692,0,0,1,18.671-18.671H55.073a18.693,18.693,0,0,1,18.672,18.671v95.191H45.613A9.763,9.763,0,0,1,35.861,251.375Zm290.431-80.137a18.693,18.693,0,0,1-18.671,18.671H293.557a3.482,3.482,0,1,0,0,6.963h10.582v54.5a9.763,9.763,0,0,1-9.751,9.752H80.708V228.908H197.085a3.482,3.482,0,1,0,0-6.963H80.708v-24.2a12.722,12.722,0,0,1,12.708-12.707H246.585a12.722,12.722,0,0,1,12.707,12.707v24.2H236.4a3.482,3.482,0,1,0,0,6.963h22.893V249.32a3.482,3.482,0,1,0,6.963,0V165.936a18.693,18.693,0,0,1,18.672-18.671h22.694a18.693,18.693,0,0,1,18.671,18.671Z" style="fill:#3c3e4f"/><path d="M217.944,221.945h-1.4a3.482,3.482,0,1,0,0,6.963h1.4a3.482,3.482,0,1,0,0-6.963Z" style="fill:#3c3e4f"/></svg>