<?xml version="1.0"?><!DOCTYPE svg  PUBLIC '-//W3C//DTD SVG 1.1//EN'  'http://www.w3.org/Graphics/SVG/1.1/DTD/svg11.dtd'><svg enable-background="new 0 0 50 50" id="Layer_1" version="1.1" viewBox="0 0 50 50" xml:space="preserve" xmlns="http://www.w3.org/2000/svg" xmlns:xlink="http://www.w3.org/1999/xlink"><g><path d="M29.7,35.8c0,0,3.8-0.8,5-1.9l-2.8-0.8h-1.8l-0.8,0.5L29.7,35.8z" fill="#D59241"/><path d="M24.5,23.4L26,39.7c0,0.2,0.2,0.4,0.4,0.3c0.2,0,0.4-0.2,0.3-0.4l-0.7-16.4c0-0.4-0.4-0.8-0.8-0.8   C24.8,22.6,24.5,22.9,24.5,23.4C24.5,23.4,24.5,23.4,24.5,23.4z" fill="#DC9B4D"/><path d="M16.3,37.2c0,0,0.2,0.6,1.9,0c1.7-0.6,3.6-1.1,5.3-1.1c1.8,0,4.1-0.3,4.1-0.3l-0.3-2.4l-9.6-0.7L16.3,37.2z   " fill="#D59241"/><path d="M17.9,29.8l-4.7,15.7c-0.1,0.2,0.1,0.4,0.3,0.5c0.2,0.1,0.4,0,0.5-0.2l5.5-15.4c0.1-0.4-0.1-0.9-0.5-1   C18.5,29.1,18,29.3,17.9,29.8C17.9,29.7,17.9,29.8,17.9,29.8z" fill="#ECAC55"/><path d="M27.4,35.5c0,0-0.1,0.5,0.3,0.9c0.3,0.4,0.6,0.3,0.7,0.3s0.8,0.6,0.8,0.6l0.2-2.5l-0.7-0.9H28h-0.9   L27.4,35.5z" fill="#DC9B4D"/><path d="M29.6,32.4l2.6,16.2c0,0.2-0.1,0.4-0.3,0.4c-0.2,0-0.4-0.1-0.4-0.3l-3.4-16c-0.1-0.4,0.2-0.9,0.6-1   C29,31.6,29.5,31.9,29.6,32.4C29.6,32.3,29.6,32.4,29.6,32.4z" fill="#ECAC55"/><path d="M36.4,33.3c0,0,1.6,0.1,2,0.4s1.1-0.1,1.4-0.5s-0.7-1.5-0.7-1.5l-1.5,0.4L36.4,33.3z" fill="#D59241"/><path d="M38.2,26.8l6,15.3c0.1,0.2,0,0.4-0.2,0.5c-0.2,0.1-0.4,0-0.5-0.2l-6.8-14.9c-0.2-0.4,0-0.9,0.4-1.1   C37.5,26.2,38,26.4,38.2,26.8C38.2,26.8,38.2,26.8,38.2,26.8z" fill="#ECAC55"/><path d="M44.6,26.9c0.1,1.5-2.4,4.2-4,5.1c-1.6,0.9-4.5,2.2-5.5,2.4c-1,0.2-5.2-0.2-6.1-0.3c-0.9-0.1-4.1,0.2-5,0.2   c-0.9,0-5.2,0.2-6.5,0.2c-1.3,0-1.5-0.5-2.1-1c-0.6-0.5-3.9-6.3-4.2-7.3c-0.4-1-1.2-3.4-2.2-6c-0.9-2.7-2.9-9.3-3.2-10.6   C5.6,8.1,5,5.5,5.7,4.6C5.8,4.4,6,4.2,6.3,4.2c0.8-0.2,2,0.1,2.4,0.3c0.6,0.3,3.2-0.1,4.7-0.6c1.5-0.5,3.2-2.3,7-2.8   c3.8-0.6,4.8,3.4,4.8,3.4s0.2,1.3,0.3,2.2c0,0.8,0.7,2.9,0.7,5.7c0,2.8,0.8,5.5,1.1,6.2c0.3,0.7,2.2,0.5,3.5,0.1   c1.3-0.4,3.9-1.4,5.8-1.5c1.9-0.2,2.9,2.1,3,2.7c0.1,0.6-0.1,2,0.3,3c0.4,1.1,2.8,1.6,3.3,1.8c0.1,0,0.3,0.1,0.5,0.2   C44.1,25.2,44.6,25.8,44.6,26.9z" fill="#48BC9B"/><path d="M44.6,26.9c0.1,3-5.7,6.6-9.5,7.5c-1,0.2-5.2-0.2-6.1-0.3c0,0-10.6,0.4-11.5,0.4c-1.3,0-1.5-0.5-2.1-1   c-0.6-0.5-3.9-6.3-4.2-7.3c-0.3-0.9-3.8-10-5.3-16.7C5.6,8.1,5,5.5,5.7,4.6C5.8,4.4,6,4.2,6.3,4.2c1.1,0.9,1.9,2.1,2.6,3.4   c1.1,2.1,1.6,4.3,2.2,6.6c0.6,2.4,1.2,4.8,1.8,7.2c1,4.1,3.5,2.2,5.9,2.1c2.9-0.1,5,2.5,9.8,7.3c1.1,1.1,1.6,1.4,3.2,1.3   c4.8-0.2,9.4-3.1,11.7-7.3C44.1,25.2,44.6,25.8,44.6,26.9z" fill="#37AC88"/><g><path d="M37.4,25.3c-0.4,0-0.7-0.3-0.7-0.6c0-0.3,0.3-0.6,0.7-0.6c0.4,0,0.7,0.3,0.7,0.6    C38.1,25,37.8,25.3,37.4,25.3z M37.4,24.3c-0.2,0-0.4,0.1-0.4,0.3c0,0.2,0.2,0.3,0.4,0.3c0.2,0,0.4-0.1,0.4-0.3    C37.8,24.5,37.7,24.3,37.4,24.3z" fill="#37AC88"/></g><g><path d="M31,26.4c-0.5-0.3-0.3-0.9,0.2-1.1c0.4-0.1,0.7,0.1,0.8,0.4c0.1,0.3-0.2,0.7-0.5,0.8    C31.3,26.5,31.1,26.5,31,26.4z M31.3,25.6c-0.5,0.1-0.4,0.7,0.2,0.6c0.2-0.1,0.4-0.2,0.3-0.4v0C31.7,25.6,31.5,25.6,31.3,25.6z" fill="#37AC88"/></g><g><path d="M23,16.8c-0.1-0.4,0-0.8,0.3-0.9c0.3-0.1,0.7,0.1,0.8,0.4c0.1,0.4,0,0.7-0.3,0.9l0,0    C23.6,17.3,23.2,17.1,23,16.8z M23.4,16.2c-0.2,0.1-0.2,0.3-0.1,0.5c0.1,0.2,0.3,0.3,0.4,0.3c0.2-0.1,0.2-0.3,0.1-0.5    C23.8,16.3,23.6,16.1,23.4,16.2z" fill="#37AC88"/></g><g><path d="M17.9,19.4c-0.1-0.4-0.1-0.7,0.2-0.8c0.2-0.1,0.6,0.1,0.7,0.5c0.1,0.4,0.1,0.7-0.2,0.8h0    C18.3,20,18,19.8,17.9,19.4z M18.2,18.9c-0.1,0-0.1,0.3,0,0.5c0.1,0.1,0.2,0.3,0.4,0.3c0.1,0,0.1-0.2,0.1-0.5    C18.5,19,18.3,18.8,18.2,18.9z" fill="#37AC88"/></g><g><path d="M13.7,19.6c-0.1-0.3-0.1-0.7,0.2-0.8c0.3-0.1,0.6,0.1,0.7,0.5C15,20.1,14.1,20.5,13.7,19.6z M14,19.1    c-0.1,0-0.1,0.3,0,0.5c0.1,0.2,0.3,0.3,0.3,0.3c0.1-0.1,0.1-0.3,0-0.5C14.3,19.2,14.2,19,14,19.1z" fill="#37AC88"/></g><g><path d="M14.5,11c-0.1-0.4-0.1-0.7,0.2-0.8c0.3-0.1,0.6,0.1,0.7,0.5c0.1,0.3,0.1,0.7-0.2,0.8l0,0    C14.9,11.6,14.6,11.3,14.5,11z M14.8,10.4c-0.1,0-0.1,0.2,0,0.5c0.1,0.2,0.3,0.4,0.4,0.2c0-0.1,0-0.2,0-0.4    C15.1,10.6,14.9,10.4,14.8,10.4z" fill="#37AC88"/></g><g><path d="M20.6,8.5c-0.1-0.4-0.1-0.7,0.2-0.8c0.3-0.1,0.6,0.1,0.7,0.5c0.1,0.4,0.1,0.7-0.2,0.8l0,0    C21,9,20.7,8.8,20.6,8.5z M20.9,7.9c-0.1,0-0.1,0.2,0,0.5c0.1,0.2,0.3,0.3,0.3,0.3c0.1,0,0.1-0.2,0-0.5C21.2,8,21,7.8,20.9,7.9z" fill="#37AC88"/></g><g><path d="M26.9,26c-0.4-0.1-0.6-0.5-0.4-0.8c0.1-0.3,0.5-0.5,0.9-0.3c0.3,0.1,0.6,0.5,0.4,0.8l0,0    C27.6,26,27.2,26.1,26.9,26z M26.7,25.3c-0.1,0.1,0.1,0.4,0.3,0.4c0.2,0.1,0.4,0,0.5-0.1v0c0.1-0.1,0-0.4-0.3-0.4    C27,25.1,26.8,25.1,26.7,25.3z" fill="#37AC88"/></g><path d="M16.7,23.1c1.2,0.4,2.5-0.4,3.7-0.5c1.2,0,2.3,0.7,3.2,1.6   c0.8,0.9,1.5,1.9,2.4,2.7c1.5,1.4,3.5,2.3,5.6,2.3c1.6,0,3.1-0.4,4.6-0.9c0.7-0.2,1.4-0.4,1.9-0.9c0.7-0.6,0.9-1.6,1.1-2.5   c0-0.3,0.1-0.7-0.1-1c-0.1-0.2-0.4-0.4-0.6-0.5c-2.1-0.9-4.6-0.6-6.9-0.6c-2.1,0-4.1-0.4-6.1-1c-2.1-0.6-4.1-1.6-6.3-1.3   c-1,0.1-1.9,0.5-2.8,1c-0.4,0.2-0.7,0.4-0.6,0.8C15.8,22.7,16.3,23,16.7,23.1z" fill="#221F1F" opacity="5.000000e-002"/></g></svg>