<?xml version="1.0"?><svg viewBox="0 0 512 512" xmlns="http://www.w3.org/2000/svg"><defs><style>.cls-1{fill:#e95a6b;}.cls-2{opacity:0.15;}.cls-3{fill:#3f456b;}.cls-4{fill:#f5f6f7;}.cls-5{opacity:0.7;}.cls-6{fill:#fff;}.cls-7{opacity:0.2;}.cls-8{fill:#bf8d77;}.cls-9{fill:#b2c6ed;}.cls-10{fill:#a6dcf7;}</style></defs><title/><g id="Colors"><path class="cls-1" d="M58,366.79v-130c0-9.88,9.35-18,20.78-18H235.7c11.43,0,20.78,8.08,20.78,18v130"/><g class="cls-2"><path class="cls-3" d="M112.23,388.44c-16.78-48.61-9.66-99.54-9.66-99.54s40.78-18,97.21-9.43c14.44,41.81,9.66,99.54,9.66,99.54S159.58,389.87,112.23,388.44Z"/></g><path class="cls-4" d="M91.23,368.44c-16.78-48.61-9.66-99.54-9.66-99.54s40.78-18,97.21-9.43c14.44,41.81,9.66,99.54,9.66,99.54S138.58,369.87,91.23,368.44Z"/><g class="cls-2"><path class="cls-3" d="M87.52,348S142,328,189.13,338L189,355l-98,9Z"/></g><g class="cls-5"><ellipse class="cls-6" cx="132" cy="289.5" rx="37" ry="28.5" transform="translate(-39 21.18) rotate(-8)"/></g><path class="cls-1" d="M257.52,366.79v-130c0-9.88,9.36-18,20.79-18H435.22c11.43,0,20.78,8.08,20.78,18v130"/><g class="cls-2"><path class="cls-3" d="M401,384.44c16.77-48.61,9.66-99.54,9.66-99.54s-40.79-18-97.22-9.43c-14.43,41.81-9.65,99.54-9.65,99.54S353.68,385.87,401,384.44Z"/></g><path class="cls-4" d="M420,368.44c16.77-48.61,9.66-99.54,9.66-99.54s-40.79-18-97.22-9.43c-14.43,41.81-9.65,99.54-9.65,99.54S372.68,369.87,420,368.44Z"/><g class="cls-2"><path class="cls-3" d="M423.74,347s-54.47-19-101.61-9l.14,17,98,9Z"/></g><g class="cls-5"><ellipse class="cls-6" cx="379.27" cy="289.5" rx="28.5" ry="37" transform="translate(39.81 624.8) rotate(-82)"/></g><path class="cls-1" d="M422.84,367s-17.46-18.18-83.79-18.18-83.8,17.63-83.8,17.63S170.3,329,90,364.81v56.77H424Z"/><rect class="cls-1" height="52.09" width="338.01" x="88" y="420.68"/><g class="cls-2"><rect class="cls-3" height="13.47" width="333.16" x="88" y="408.1"/></g><g class="cls-7"><rect class="cls-6" height="12.57" width="334.16" x="88" y="421.58"/></g><g class="cls-7"><path class="cls-6" d="M257,370.78s-15.94-17.95-83.16-17.95-84.22,9.47-84.22,9.47V378s91.06-20.76,166.29,0Z"/></g><g class="cls-7"><path class="cls-6" d="M423.47,364.84s-15.94-12-83.2-12S256,370.58,256,370.58V378s91.11-20.76,166.38,0Z"/></g><g class="cls-7"><path class="cls-6" d="M61.13,264.4s1-32.06,18.7-32.06H235.7s15.59,0,17.67,9c0,0,3.11-22.45-17.67-22.45H78.79S49,219,61.13,264.4Z"/></g><g class="cls-7"><path class="cls-6" d="M451.78,264.4s-1-32.06-18.71-32.06H277.2s-15.58,0-17.66,9c0,0-3.12-22.45,17.66-22.45H434.11S469,219,451.78,264.4Z"/></g><g class="cls-2"><polygon class="cls-3" points="103 474 88 474 88 365 103 362 103 474"/></g><g class="cls-2"><polygon class="cls-3" points="424 474 409 474 409 362 424 364 424 474"/></g><g class="cls-2"><path class="cls-3" d="M271,420H256V253c0-31,15-32,15-32Z"/></g><g class="cls-2"><path class="cls-3" d="M241,420h15V253c0-31-15-32-15-32Z"/></g><rect class="cls-1" height="171" rx="10" ry="10" width="72" x="16" y="303"/><rect class="cls-1" height="171" rx="10" ry="10" width="72" x="424" y="303"/><g class="cls-2"><rect class="cls-3" height="13.47" width="481.35" x="16" y="459.3"/></g><g class="cls-2"><polygon class="cls-3" points="16 474 31 474 31 302 16 310 16 474"/></g><g class="cls-2"><polygon class="cls-3" points="496 474 481 474 481 302 496 310 496 474"/></g><g class="cls-7"><rect class="cls-6" height="13.47" width="72" x="16" y="303.3"/></g><g class="cls-7"><rect class="cls-6" height="13.47" width="72" x="424" y="303.3"/></g><rect class="cls-8" height="176" transform="translate(514 208) rotate(180)" width="288" x="113" y="16"/><g data-name="&lt;编组&gt;" id="_编组_"><path class="cls-9" d="M372.5,43.5v122H189c-6-22.82,6-42.91,26-53.66,24.23-13,47.53-7,73.57-6.31,36.53,1,52.12-28.84,50.95-62Z"/><path class="cls-10" d="M339.5,43.5c1.17,33.19-14.42,63-50.95,62-26-.71-49.34-6.72-73.57,6.31-20,10.75-32,30.84-26,53.66H142.5V43.5Z"/></g><g class="cls-7"><rect class="cls-6" height="15" width="288" x="113" y="16"/></g><g class="cls-2"><rect class="cls-3" height="15" width="288" x="113" y="176"/></g><g class="cls-2"><rect class="cls-3" height="15" width="230" x="142" y="43"/></g></g><g id="Lines"><path class="cls-3" d="M188.85,357h-.23a5,5,0,0,1-4.77-5.22c.73-16.08,1.26-56.11-8.84-87.8-45-6.13-79.35,4.94-88.82,8.47a244.15,244.15,0,0,0-1,30.92,5,5,0,0,1-10,.28,232.39,232.39,0,0,1,1.44-35.44,5,5,0,0,1,2.93-3.88c1.72-.76,42.77-18.51,100-9.8a5,5,0,0,1,4,3.31c11.65,33.73,11.11,77.25,10.33,94.39A5,5,0,0,1,188.85,357Z"/><path class="cls-3" d="M322.45,357.83a5,5,0,0,1-5-4.76c-.82-17.28-1.47-61.14,10.3-95.23a5,5,0,0,1,4-3.31c57.21-8.71,98.27,9,100,9.8a5,5,0,0,1,2.93,3.88,232.48,232.48,0,0,1,1.44,35.22,5,5,0,1,1-10-.27,243.93,243.93,0,0,0-1-30.71c-9.48-3.52-44-14.58-88.81-8.47-10.22,32-9.58,72.4-8.81,88.61a5,5,0,0,1-4.76,5.23Z"/><path class="cls-3" d="M440,478.67H78a5,5,0,0,1,0-10H440a5,5,0,0,1,0,10Z"/><path class="cls-3" d="M424,425.68H90a5,5,0,0,1,0-10H424a5,5,0,0,1,0,10Z"/><path class="cls-3" d="M256.44,425.47a5,5,0,0,1-5-5V369.4c-6.36-3.08-28.2-11.4-78.39-11.4-62.5,0-82.33,11.2-82.52,11.31a5,5,0,1,1-5.06-8.62c.88-.52,22.39-12.69,87.58-12.69,52.24,0,78.83,9.05,86.3,14.4a5,5,0,0,1,2.09,4.06v54A5,5,0,0,1,256.44,425.47Z"/><path class="cls-3" d="M259.72,370.31l.08-.06-6.54-7.57C255,361.18,272.12,348,336.73,348c65,0,88.49,11,89.45,11.5a5,5,0,0,1-4.34,9c-.14-.07-5.81-2.68-19-5.25-12.25-2.4-33.66-5.26-66.14-5.26C275.92,358,259.87,370.19,259.72,370.31Z"/><path class="cls-3" d="M256.48,371.79a5,5,0,0,1-5-5v-130c0-7.15-7.08-13-15.78-13H78.79c-8.7,0-15.78,5.81-15.78,13V303a5,5,0,0,1-10,0V236.83c0-12.66,11.56-23,25.78-23H235.7c14.22,0,25.78,10.3,25.78,23v130A5,5,0,0,1,256.48,371.79Z"/><path class="cls-3" d="M456,307a5,5,0,0,1-5-5V236.83c0-7.15-7.08-13-15.78-13H278.31c-8.16,0-16.83,5.48-16.83,15.65a5,5,0,1,1-10,0c0-14.38,11.79-25.65,26.83-25.65H435.22c14.21,0,25.78,10.3,25.78,23V302A5,5,0,0,1,456,307Z"/><path class="cls-3" d="M52,500a5,5,0,0,1-5-5V474a5,5,0,0,1,10,0v21A5,5,0,0,1,52,500Z"/><path class="cls-3" d="M460,500a5,5,0,0,1-5-5V474a5,5,0,0,1,10,0v21A5,5,0,0,1,460,500Z"/><path class="cls-3" d="M78,479H26a15,15,0,0,1-15-15V313a15,15,0,0,1,15-15H78a15,15,0,0,1,15,15V464A15,15,0,0,1,78,479ZM26,308a5,5,0,0,0-5,5V464a5,5,0,0,0,5,5H78a5,5,0,0,0,5-5V313a5,5,0,0,0-5-5Z"/><path class="cls-3" d="M486,479H434a15,15,0,0,1-15-15V313a15,15,0,0,1,15-15h52a15,15,0,0,1,15,15V464A15,15,0,0,1,486,479ZM434,308a5,5,0,0,0-5,5V464a5,5,0,0,0,5,5h52a5,5,0,0,0,5-5V313a5,5,0,0,0-5-5Z"/><path class="cls-3" d="M401,197H113a5,5,0,0,1-5-5V16a5,5,0,0,1,5-5H401a5,5,0,0,1,5,5V192A5,5,0,0,1,401,197ZM118,187H396V21H118Z"/><path class="cls-3" d="M372,170H142a5,5,0,0,1-5-5V43a5,5,0,0,1,5-5H372a5,5,0,0,1,5,5V165A5,5,0,0,1,372,170ZM147,160H367V48H147Z"/><path class="cls-3" d="M188.5,170a5,5,0,0,1-4.83-3.72c-6.2-23.43,5-46.72,28.44-59.35,20.1-10.8,39.09-9.38,59.2-7.89,5.49.41,11.17.84,16.88,1,13,.36,23.55-3.47,31.4-11.38,10-10.05,15.09-26.2,14.41-45.47a5,5,0,1,1,10-.36c.78,22.06-5.37,40.84-17.31,52.88-9.73,9.8-23.13,14.76-38.78,14.33-5.94-.16-11.74-.59-17.34-1-19.42-1.45-36.2-2.7-53.73,6.72-19.55,10.52-28.56,28.9-23.51,48a5,5,0,0,1-3.55,6.11A4.75,4.75,0,0,1,188.5,170Z"/></g></svg>