<svg version="1.1" id="Layer_1" xmlns="http://www.w3.org/2000/svg" xmlns:xlink="http://www.w3.org/1999/xlink" x="0px" y="0px"
	 width="100%" viewBox="0 0 512 512" enable-background="new 0 0 512 512" xml:space="preserve">
<path fill="#010000" opacity="1.000000" stroke="none" 
	d="
M295.000000,513.000000 
	C196.690536,513.000000 98.881065,513.000000 1.035801,513.000000 
	C1.035801,342.398834 1.035801,171.797684 1.035801,1.098256 
	C171.559479,1.098256 342.119049,1.098256 512.839294,1.098256 
	C512.839294,171.666550 512.839294,342.333252 512.839294,513.000000 
	C440.464325,513.000000 367.982147,513.000000 295.000000,513.000000 
M62.259178,67.036263 
	C62.173409,69.200073 62.012875,71.363876 62.012604,73.527695 
	C61.999249,179.352676 61.998489,285.177643 62.013950,391.002625 
	C62.014118,392.163391 62.246033,393.324127 62.430992,395.059235 
	C77.728775,377.955841 96.059242,368.965393 118.360954,369.050964 
	C140.502350,369.135925 158.670975,378.347992 173.997009,395.445282 
	C173.997009,386.418579 173.996994,378.615997 173.996994,370.813385 
	C173.996994,294.492767 173.998367,218.172134 173.996201,141.851517 
	C173.995529,118.687889 174.243561,95.520615 173.916748,72.361511 
	C173.460968,40.062881 146.575745,15.171520 114.356987,17.166962 
	C87.812965,18.810946 65.910378,39.046791 62.259178,67.036263 
M222.125137,410.689941 
	C211.623444,413.087799 201.121765,415.485657 190.334839,417.948608 
	C190.334839,422.359406 190.334839,427.416748 190.334839,432.589966 
	C225.072067,432.589966 259.470032,432.589966 293.684540,432.589966 
	C302.676605,377.243073 334.791992,345.479126 389.727661,336.601562 
	C389.727661,304.681030 389.727661,272.897644 389.727661,241.215973 
	C334.512177,232.265472 302.645691,200.268005 293.753174,145.308060 
	C259.316254,145.308060 224.894073,145.308060 190.249481,145.308060 
	C190.249481,150.667892 190.249481,155.754135 190.249481,160.822739 
	C252.385681,164.973770 305.066864,214.712921 309.841309,281.172058 
	C313.878876,337.373657 277.160248,392.331787 222.125137,410.689941 
M421.995728,336.500000 
	C421.995728,262.085541 421.995728,187.671097 421.995728,113.392555 
	C344.255249,113.392555 267.205444,113.392555 190.260376,113.392555 
	C190.260376,118.730469 190.260376,123.672829 190.260376,129.035446 
	C191.809998,129.035446 193.102600,129.035629 194.395187,129.035431 
	C250.722336,129.026611 307.049500,129.023651 363.376648,129.002182 
	C371.261261,128.999176 373.500977,130.981186 374.036835,138.642685 
	C374.866943,150.511246 384.457428,160.056625 396.446014,160.946411 
	C403.889801,161.498886 406.004608,163.849670 405.987488,171.231506 
	C405.942200,190.728546 405.946625,210.225723 405.950134,229.722855 
	C405.960815,289.214722 405.987579,348.706604 405.984802,408.198486 
	C405.984558,413.816437 403.154785,416.664948 397.481750,417.006226 
	C384.161102,417.807617 374.776459,427.111389 374.008820,440.276917 
	C373.662537,446.216034 370.764893,448.992920 364.882324,448.989258 
	C308.391541,448.954132 251.900772,448.915283 195.409988,448.877716 
	C193.492172,448.876465 191.574341,448.877563 189.872391,448.877563 
	C188.565262,454.678925 187.439529,459.675232 186.307999,464.697266 
	C264.829041,464.697266 343.240601,464.697266 421.995728,464.697266 
	C421.995728,422.097443 421.995728,379.798737 421.995728,336.500000 
M259.317383,345.777954 
	C241.997681,368.884735 218.769958,381.667542 190.260834,384.962982 
	C190.260834,390.387787 190.260834,395.494629 190.260834,400.612213 
	C243.002853,397.704041 293.754944,352.587555 293.899231,289.269684 
	C294.044464,225.513641 242.896194,180.267899 190.309494,177.439697 
	C190.206100,178.219177 190.014481,179.015732 190.008911,179.813599 
	C189.978745,184.131989 189.994598,188.450699 189.994598,192.923615 
	C226.393585,197.764465 253.716553,215.658020 268.993378,249.095413 
	C284.262726,282.516479 280.382111,314.856323 259.317383,345.777954 
M241.955215,266.734100 
	C248.710526,285.936371 247.209030,304.502411 236.741745,321.932983 
	C226.197723,339.491272 210.260117,349.522125 190.231949,352.772766 
	C190.231949,358.313812 190.231949,363.439117 190.231949,368.584808 
	C231.745438,364.327332 262.649506,329.056427 261.954712,286.976318 
	C261.299927,247.318756 228.893677,212.251938 190.336456,209.586807 
	C190.336456,214.819717 190.336456,220.039551 190.336456,225.246506 
	C214.973862,229.709183 232.053268,243.200455 241.955215,266.734100 
M140.596939,492.161377 
	C164.669891,480.718109 177.108551,457.628937 173.124496,431.782349 
	C168.802643,403.744171 143.311523,383.521362 114.276093,385.096313 
	C86.521194,386.601807 63.100655,410.395050 62.058025,438.145325 
	C60.492985,479.799866 100.487907,507.722260 140.596939,492.161377 
M352.093964,385.553314 
	C363.007385,376.555054 375.572388,371.294342 389.664673,369.384583 
	C389.664673,363.964355 389.664673,358.890839 389.664673,353.803650 
	C346.193817,356.229065 311.832245,396.024048 311.030701,432.558105 
	C316.098419,432.558105 321.158813,432.558105 326.130402,432.558105 
	C332.523010,407.549530 337.308624,398.822296 352.093964,385.553314 
M327.768250,189.722244 
	C343.426880,209.917755 363.864685,221.525345 389.537781,224.448822 
	C389.537781,218.802963 389.537781,213.604355 389.537781,208.752716 
	C353.818390,201.786041 332.921906,180.728348 326.209412,145.278809 
	C321.133942,145.278809 316.049713,145.278809 310.649353,145.278809 
	C312.024200,161.720261 317.875885,176.114059 327.768250,189.722244 
M191.037186,323.951691 
	C190.549927,327.893921 190.062668,331.836121 189.563736,335.872803 
	C210.373764,335.346039 229.861389,312.431763 229.970306,289.265503 
	C230.080261,265.880676 210.680038,242.825897 190.168823,242.173080 
	C190.168823,245.975296 190.168823,249.773453 190.168823,253.680634 
	C190.769821,253.925369 191.361877,254.188904 191.969223,254.410553 
	C208.286133,260.365173 217.936737,273.275696 217.898315,289.105560 
	C217.859879,304.940674 208.164246,317.815857 191.037186,323.951691 
M453.130157,120.814865 
	C453.408722,119.412987 453.921295,118.012398 453.929016,116.609024 
	C453.993805,104.862144 453.965851,93.114754 453.965851,81.370461 
	C440.294891,81.370461 427.265289,81.370461 414.243469,81.370461 
	C414.243469,86.669434 414.243469,91.595474 414.243469,97.000137 
	C419.267303,97.000137 424.049316,96.973610 428.830902,97.006683 
	C435.180359,97.050591 437.935791,99.764206 437.990448,106.050697 
	C438.033203,110.965210 437.998993,115.880394 437.998993,120.967110 
	C443.235382,120.967110 447.714478,120.967110 453.130157,120.814865 
M420.598022,496.999756 
	C431.657776,496.999756 442.717529,496.999756 453.691956,496.999756 
	C453.691956,483.267181 453.691956,470.353333 453.691956,457.312500 
	C448.377838,457.312500 443.341949,457.312500 438.396790,457.312500 
	C438.219513,457.970306 438.064972,458.280548 438.062653,458.591919 
	C438.029449,463.082489 438.047089,467.573608 437.991547,472.063843 
	C437.917236,478.070740 435.122345,480.919891 429.188568,480.987854 
	C424.253296,481.044403 419.316895,480.999451 414.343323,480.999451 
	C414.343323,486.632568 414.343323,491.674622 414.343323,496.999725 
	C416.341705,496.999725 417.984924,496.999725 420.598022,496.999756 
M343.162201,432.456482 
	C348.285706,432.456482 353.409210,432.456482 358.775360,432.456482 
	C363.016327,416.302368 373.519287,406.007080 389.674500,401.665649 
	C389.674500,396.279144 389.674500,391.178192 389.674500,386.075836 
	C368.326660,386.849335 346.385376,408.337311 343.162201,432.456482 
M356.359711,174.136368 
	C365.359924,183.964767 376.250916,190.149536 389.809174,192.104797 
	C389.809174,186.454880 389.809174,181.479004 389.809174,176.307007 
	C373.458191,171.920120 362.984436,161.588791 358.705200,145.250671 
	C353.368408,145.250671 348.243774,145.250671 342.814972,145.250671 
	C344.428711,156.187103 348.878113,165.474960 356.359711,174.136368 
M193.537064,305.247803 
	C200.014099,300.272858 202.920349,293.719360 201.536240,285.657410 
	C200.391266,278.988220 196.731750,274.011841 190.370483,271.006622 
	C190.370483,283.250458 190.370483,295.021515 190.370483,307.156494 
	C191.530350,306.513672 192.238464,306.121246 193.537064,305.247803 
M448.392670,200.960464 
	C444.999023,200.960464 441.605377,200.960464 438.248840,200.960464 
	C438.248840,206.648087 438.248840,211.552750 438.248840,216.651367 
	C443.521423,216.651367 448.537018,216.651367 453.759644,216.651367 
	C453.759644,211.438248 453.759644,206.538147 453.759644,201.276611 
	C452.216949,201.165985 450.785278,201.063324 448.392670,200.960464 
M382.003204,494.270355 
	C382.651917,495.171906 383.262421,496.818695 383.955536,496.854248 
	C388.517883,497.088196 393.098022,496.975006 397.600586,496.975006 
	C397.600586,491.281555 397.600586,486.247650 397.600586,481.256897 
	C392.298737,481.256897 387.384796,481.256897 381.998810,481.256897 
	C381.998810,485.435883 381.998810,489.373962 382.003204,494.270355 
M357.523132,496.998657 
	C360.268951,496.998657 363.014801,496.998657 365.579102,496.998657 
	C365.579102,491.216370 365.579102,486.179749 365.579102,481.286987 
	C360.241760,481.286987 355.325012,481.286987 350.330811,481.286987 
	C350.330811,486.609161 350.330811,491.641449 350.330811,496.998657 
	C352.625885,496.998657 354.591400,496.998657 357.523132,496.998657 
M321.687500,481.002197 
	C320.466125,481.665131 318.241638,482.255585 318.187622,483.002899 
	C317.858643,487.553436 318.023376,492.139679 318.023376,496.602875 
	C323.739716,496.602875 328.775818,496.602875 333.728302,496.602875 
	C333.728302,491.286285 333.728302,486.369415 333.728302,481.001495 
	C329.863068,481.001495 326.251984,481.001495 321.687500,481.002197 
M292.557434,496.998474 
	C295.632080,496.998474 298.706726,496.998474 301.746674,496.998474 
	C301.746674,491.321045 301.746674,486.403961 301.746674,481.299011 
	C296.460938,481.299011 291.428101,481.299011 286.345367,481.299011 
	C286.345367,486.634705 286.345367,491.668182 286.345367,496.998444 
	C288.326263,496.998444 289.963562,496.998444 292.557434,496.998474 
M269.968597,495.220398 
	C269.968597,490.624390 269.968597,486.028381 269.968597,481.322906 
	C264.413513,481.322906 259.381470,481.322906 254.371964,481.322906 
	C254.371964,486.687439 254.371964,491.720612 254.371964,497.376221 
	C259.793457,496.950256 264.814606,496.555756 269.968597,495.220398 
M227.604172,496.998688 
	C231.005585,496.998688 234.406998,496.998688 237.738892,496.998688 
	C237.738892,491.295471 237.738892,486.378204 237.738892,481.311096 
	C232.442459,481.311096 227.410675,481.311096 222.193649,481.311096 
	C222.193649,486.534760 222.193649,491.448792 222.193649,496.703247 
	C223.765976,496.807556 225.204437,496.903015 227.604172,496.998688 
M199.446259,496.998230 
	C201.532227,496.998230 203.618210,496.998230 205.611969,496.998230 
	C205.611969,491.270081 205.611969,486.232330 205.611969,481.260864 
	C200.300583,481.260864 195.382629,481.260864 190.306427,481.260864 
	C190.306427,486.556946 190.306427,491.589508 190.306427,496.998230 
	C193.232056,496.998230 195.855545,496.998230 199.446259,496.998230 
M190.000092,93.312569 
	C190.663513,94.533592 191.254440,96.757370 192.002258,96.811440 
	C196.552231,97.140442 201.137909,96.975632 205.597534,96.975632 
	C205.597534,91.255226 205.597534,86.217758 205.597534,81.269852 
	C200.279068,81.269852 195.361542,81.269852 189.999374,81.269852 
	C189.999374,85.136597 189.999374,88.747856 190.000092,93.312569 
M438.848785,440.793274 
	C443.750916,440.793274 448.653046,440.793274 453.616516,440.793274 
	C453.616516,435.314972 453.616516,430.292175 453.616516,425.362427 
	C448.232544,425.362427 443.208710,425.362427 438.182465,425.362427 
	C438.182465,430.551147 438.182465,435.338135 438.848785,440.793274 
M237.834061,96.176964 
	C237.834061,91.256058 237.834061,86.335159 237.834061,81.333633 
	C232.391937,81.333633 227.357117,81.333633 222.379517,81.333633 
	C222.379517,86.711090 222.379517,91.746918 222.379517,96.838524 
	C227.558731,96.838524 232.356949,96.838524 237.834061,96.176964 
M254.003036,85.641907 
	C254.003036,89.372124 254.003036,93.102341 254.003036,96.721527 
	C259.733521,96.721527 264.650757,96.721527 269.672913,96.721527 
	C269.672913,91.407639 269.672913,86.374832 269.672913,81.005821 
	C265.230896,81.005821 261.101044,81.167587 256.990906,80.952469 
	C253.934509,80.792496 253.849396,82.530594 254.003036,85.641907 
M437.995758,405.297516 
	C438.670654,406.511780 439.273041,408.721588 440.032288,408.776855 
	C444.566681,409.106995 449.137268,408.940308 453.723999,408.940308 
	C453.723999,403.304779 453.723999,398.401886 453.723999,393.250061 
	C448.460266,393.250061 443.442383,393.250061 437.994965,393.250061 
	C437.994965,397.133942 437.994965,400.740356 437.995758,405.297516 
M297.362183,96.998184 
	C298.796539,96.903275 300.230865,96.808365 301.632721,96.715607 
	C301.632721,91.321625 301.632721,86.289497 301.632721,81.412323 
	C296.221069,81.412323 291.183167,81.412323 286.281494,81.412323 
	C286.281494,86.744942 286.281494,91.662743 286.281494,96.998360 
	C289.832855,96.998360 293.115570,96.998360 297.362183,96.998184 
M332.219238,81.031868 
	C327.623016,81.031868 323.026794,81.031868 318.319824,81.031868 
	C318.319824,86.583176 318.319824,91.616493 318.319824,96.629387 
	C323.680939,96.629387 328.716949,96.629387 334.372498,96.629387 
	C333.947083,91.205063 333.553406,86.185341 332.219238,81.031868 
M365.990601,83.732468 
	C365.341248,82.830772 364.730103,81.183701 364.036346,81.148140 
	C359.470734,80.914124 354.887360,81.027390 350.379700,81.027390 
	C350.379700,86.711952 350.379700,91.748978 350.379700,96.745544 
	C355.681366,96.745544 360.598328,96.745544 365.994812,96.745544 
	C365.994812,92.567970 365.994812,88.629105 365.990601,83.732468 
M382.164642,81.822212 
	C382.164642,86.740585 382.164642,91.658958 382.164642,96.665878 
	C387.592468,96.665878 392.622223,96.665878 397.605316,96.665878 
	C397.605316,91.292862 397.605316,86.258644 397.605316,81.160660 
	C392.431915,81.160660 387.637848,81.160660 382.164642,81.822212 
M445.515991,360.960449 
	C443.106964,360.960449 440.697968,360.960449 438.390198,360.960449 
	C438.390198,366.697693 438.390198,371.722229 438.390198,376.687012 
	C443.688843,376.687012 448.588165,376.687012 453.650269,376.687012 
	C453.650269,371.386230 453.650269,366.366577 453.650269,360.960419 
	C451.048523,360.960419 448.761566,360.960419 445.515991,360.960449 
M450.304138,328.961761 
	C446.253937,328.961761 442.203766,328.961761 438.276672,328.961761 
	C438.276672,334.703857 438.276672,339.609131 438.276672,344.623230 
	C443.580597,344.623230 448.595795,344.623230 453.956055,344.623230 
	C453.956055,340.009583 454.105316,335.721985 453.833710,331.461212 
	C453.777466,330.578827 452.157318,329.796173 450.304138,328.961761 
M453.968933,302.601044 
	C453.968933,300.844574 453.968933,299.088104 453.968933,297.330933 
	C448.296570,297.330933 443.275940,297.330933 438.408020,297.330933 
	C438.408020,302.734863 438.408020,307.760406 438.408020,312.669037 
	C443.725983,312.669037 448.625946,312.669037 453.968933,312.669037 
	C453.968933,309.442749 453.968933,306.499115 453.968933,302.601044 
M446.471344,136.997772 
	C443.731812,136.997772 440.992279,136.997772 438.404846,136.997772 
	C438.404846,142.740616 438.404846,147.759003 438.404846,152.677643 
	C443.715698,152.677643 448.611969,152.677643 453.637390,152.677643 
	C453.637390,147.372299 453.637390,142.360443 453.637390,136.997772 
	C451.355774,136.997772 449.395966,136.997772 446.471344,136.997772 
M449.340820,280.965179 
	C450.769501,280.864777 452.198181,280.764404 453.592834,280.666382 
	C453.592834,275.261261 453.592834,270.237213 453.592834,265.207703 
	C448.309387,265.207703 443.405334,265.207703 438.284607,265.207703 
	C438.284607,270.478241 438.284607,275.499786 438.284607,280.965271 
	C441.834686,280.965271 445.108582,280.965271 449.340820,280.965179 
M438.000824,182.251465 
	C438.660858,183.147369 439.282745,184.782761 439.987122,184.819077 
	C444.536102,185.053680 449.103088,184.939178 453.566986,184.939178 
	C453.566986,179.205002 453.566986,174.178909 453.566986,169.234802 
	C448.255646,169.234802 443.350677,169.234802 437.995758,169.234802 
	C437.995758,173.429123 437.995758,177.362778 438.000824,182.251465 
M453.932648,247.178360 
	C453.932648,242.592896 453.932648,238.007416 453.932648,233.284332 
	C448.392822,233.284332 443.373932,233.284332 438.362854,233.284332 
	C438.362854,238.637192 438.362854,243.660828 438.362854,249.350677 
	C443.771606,248.914291 448.773865,248.510696 453.932648,247.178360 
M166.386719,497.011108 
	C168.802032,497.011108 171.217346,497.011108 173.618805,497.011108 
	C173.618805,493.468994 173.618805,490.507477 173.618805,486.818573 
	C170.512131,489.946869 167.937057,492.469330 165.482605,495.104126 
	C165.188995,495.419312 165.551758,496.345886 166.386719,497.011108 
z"/>
<path fill="#ED5565" opacity="1.000000" stroke="none" 
	d="
M62.337940,66.593681 
	C65.910378,39.046791 87.812965,18.810946 114.356987,17.166962 
	C146.575745,15.171520 173.460968,40.062881 173.916748,72.361511 
	C174.243561,95.520615 173.995529,118.687889 173.996201,141.851517 
	C173.998367,218.172134 173.996994,294.492767 173.996994,370.813385 
	C173.996994,378.615997 173.997009,386.418579 173.997009,395.445282 
	C158.670975,378.347992 140.502350,369.135925 118.360954,369.050964 
	C96.059242,368.965393 77.728775,377.955841 62.430992,395.059235 
	C62.246033,393.324127 62.014118,392.163391 62.013950,391.002625 
	C61.998489,285.177643 61.999249,179.352676 62.012604,73.527695 
	C62.012875,71.363876 62.173409,69.200073 62.337940,66.593681 
z"/>
<path fill="#D84452" opacity="1.000000" stroke="none" 
	d="
M222.485657,410.529358 
	C277.160248,392.331787 313.878876,337.373657 309.841309,281.172058 
	C305.066864,214.712921 252.385681,164.973770 190.249481,160.822739 
	C190.249481,155.754135 190.249481,150.667892 190.249481,145.308060 
	C224.894073,145.308060 259.316254,145.308060 293.753174,145.308060 
	C302.645691,200.268005 334.512177,232.265472 389.727661,241.215973 
	C389.727661,272.897644 389.727661,304.681030 389.727661,336.601562 
	C334.791992,345.479126 302.676605,377.243073 293.684540,432.589966 
	C259.470032,432.589966 225.072067,432.589966 190.334839,432.589966 
	C190.334839,427.416748 190.334839,422.359406 190.334839,417.948608 
	C201.121765,415.485657 211.623444,413.087799 222.485657,410.529358 
M342.602600,269.021973 
	C338.128967,273.496063 333.596619,277.913361 329.198181,282.460175 
	C324.760529,287.047516 324.762482,290.900757 329.212677,295.494568 
	C333.846069,300.277527 338.562439,304.982971 343.334045,309.628326 
	C348.052307,314.221710 351.944641,314.203156 356.754242,309.544800 
	C361.418030,305.027679 366.011719,300.434570 370.531097,295.772919 
	C375.306549,290.847168 375.225006,286.989838 370.319641,281.982117 
	C366.008942,277.581421 361.639038,273.237946 357.252625,268.912415 
	C351.971619,263.704742 348.702393,263.631104 342.602600,269.021973 
z"/>
<path fill="#ED5565" opacity="1.000000" stroke="none" 
	d="
M421.995728,337.000000 
	C421.995728,379.798737 421.995728,422.097443 421.995728,464.697266 
	C343.240601,464.697266 264.829041,464.697266 186.307999,464.697266 
	C187.439529,459.675232 188.565262,454.678925 189.872391,448.877563 
	C191.574341,448.877563 193.492172,448.876465 195.409988,448.877716 
	C251.900772,448.915283 308.391541,448.954132 364.882324,448.989258 
	C370.764893,448.992920 373.662537,446.216034 374.008820,440.276917 
	C374.776459,427.111389 384.161102,417.807617 397.481750,417.006226 
	C403.154785,416.664948 405.984558,413.816437 405.984802,408.198486 
	C405.987579,348.706604 405.960815,289.214722 405.950134,229.722855 
	C405.946625,210.225723 405.942200,190.728546 405.987488,171.231506 
	C406.004608,163.849670 403.889801,161.498886 396.446014,160.946411 
	C384.457428,160.056625 374.866943,150.511246 374.036835,138.642685 
	C373.500977,130.981186 371.261261,128.999176 363.376648,129.002182 
	C307.049500,129.023651 250.722336,129.026611 194.395187,129.035431 
	C193.102600,129.035629 191.809998,129.035446 190.260376,129.035446 
	C190.260376,123.672829 190.260376,118.730469 190.260376,113.392555 
	C267.205444,113.392555 344.255249,113.392555 421.995728,113.392555 
	C421.995728,187.671097 421.995728,262.085541 421.995728,337.000000 
M399.213867,448.735474 
	C403.872711,447.540894 406.500946,444.642761 405.943054,439.739075 
	C405.501312,435.856659 403.033112,433.471588 399.081573,432.956238 
	C394.633057,432.376099 390.757446,435.360321 390.126526,439.710938 
	C389.452667,444.357422 392.470947,447.662476 399.213867,448.735474 
M390.067352,136.629120 
	C391.044067,142.564987 394.289642,145.564896 399.094421,144.972900 
	C403.426514,144.439148 406.565155,140.490067 405.988434,136.125168 
	C405.466034,132.171219 403.024292,129.678757 399.201935,129.196304 
	C394.339966,128.582657 391.363220,131.176712 390.067352,136.629120 
z"/>
<path fill="#F2B841" opacity="1.000000" stroke="none" 
	d="
M259.540833,345.495544 
	C280.382111,314.856323 284.262726,282.516479 268.993378,249.095413 
	C253.716553,215.658020 226.393585,197.764465 189.994598,192.923615 
	C189.994598,188.450699 189.978745,184.131989 190.008911,179.813599 
	C190.014481,179.015732 190.206100,178.219177 190.309494,177.439697 
	C242.896194,180.267899 294.044464,225.513641 293.899231,289.269684 
	C293.754944,352.587555 243.002853,397.704041 190.260834,400.612213 
	C190.260834,395.494629 190.260834,390.387787 190.260834,384.962982 
	C218.769958,381.667542 241.997681,368.884735 259.540833,345.495544 
z"/>
<path fill="#FBCB53" opacity="1.000000" stroke="none" 
	d="
M241.831909,266.362671 
	C232.053268,243.200455 214.973862,229.709183 190.336456,225.246506 
	C190.336456,220.039551 190.336456,214.819717 190.336456,209.586807 
	C228.893677,212.251938 261.299927,247.318756 261.954712,286.976318 
	C262.649506,329.056427 231.745438,364.327332 190.231949,368.584808 
	C190.231949,363.439117 190.231949,358.313812 190.231949,352.772766 
	C210.260117,349.522125 226.197723,339.491272 236.741745,321.932983 
	C247.209030,304.502411 248.710526,285.936371 241.831909,266.362671 
z"/>
<path fill="#CD354C" opacity="1.000000" stroke="none" 
	d="
M140.255753,492.331055 
	C100.487907,507.722260 60.492985,479.799866 62.058025,438.145325 
	C63.100655,410.395050 86.521194,386.601807 114.276093,385.096313 
	C143.311523,383.521362 168.802643,403.744171 173.124496,431.782349 
	C177.108551,457.628937 164.669891,480.718109 140.255753,492.331055 
M72.943138,424.611420 
	C65.813362,445.731659 72.555702,467.360168 90.219398,480.031128 
	C107.151184,492.177124 129.945465,491.933014 146.653107,479.426880 
	C163.656052,466.699677 170.272049,444.492767 163.008087,424.530609 
	C156.415436,406.413330 139.150955,393.756287 120.089577,393.065979 
	C99.330986,392.314148 81.995766,403.691101 72.943138,424.611420 
z"/>
<path fill="#F1B841" opacity="1.000000" stroke="none" 
	d="
M351.824158,385.786133 
	C337.308624,398.822296 332.523010,407.549530 326.130402,432.558105 
	C321.158813,432.558105 316.098419,432.558105 311.030701,432.558105 
	C311.832245,396.024048 346.193817,356.229065 389.664673,353.803650 
	C389.664673,358.890839 389.664673,363.964355 389.664673,369.384583 
	C375.572388,371.294342 363.007385,376.555054 351.824158,385.786133 
z"/>
<path fill="#F2B841" opacity="1.000000" stroke="none" 
	d="
M327.543030,189.442352 
	C317.875885,176.114059 312.024200,161.720261 310.649353,145.278809 
	C316.049713,145.278809 321.133942,145.278809 326.209412,145.278809 
	C332.921906,180.728348 353.818390,201.786041 389.537781,208.752716 
	C389.537781,213.604355 389.537781,218.802963 389.537781,224.448822 
	C363.864685,221.525345 343.426880,209.917755 327.543030,189.442352 
z"/>
<path fill="#F1B741" opacity="1.000000" stroke="none" 
	d="
M191.435455,323.834656 
	C208.164246,317.815857 217.859879,304.940674 217.898315,289.105560 
	C217.936737,273.275696 208.286133,260.365173 191.969223,254.410553 
	C191.361877,254.188904 190.769821,253.925369 190.168823,253.680634 
	C190.168823,249.773453 190.168823,245.975296 190.168823,242.173080 
	C210.680038,242.825897 230.080261,265.880676 229.970306,289.265503 
	C229.861389,312.431763 210.373764,335.346039 189.563736,335.872803 
	C190.062668,331.836121 190.549927,327.893921 191.435455,323.834656 
z"/>
<path fill="#D94453" opacity="1.000000" stroke="none" 
	d="
M452.661865,120.890991 
	C447.714478,120.967110 443.235382,120.967110 437.998993,120.967110 
	C437.998993,115.880394 438.033203,110.965210 437.990448,106.050697 
	C437.935791,99.764206 435.180359,97.050591 428.830902,97.006683 
	C424.049316,96.973610 419.267303,97.000137 414.243469,97.000137 
	C414.243469,91.595474 414.243469,86.669434 414.243469,81.370461 
	C427.265289,81.370461 440.294891,81.370461 453.965851,81.370461 
	C453.965851,93.114754 453.993805,104.862144 453.929016,116.609024 
	C453.921295,118.012398 453.408722,119.412987 452.661865,120.890991 
z"/>
<path fill="#D94453" opacity="1.000000" stroke="none" 
	d="
M420.113098,496.999756 
	C417.984924,496.999725 416.341705,496.999725 414.343323,496.999725 
	C414.343323,491.674622 414.343323,486.632568 414.343323,480.999451 
	C419.316895,480.999451 424.253296,481.044403 429.188568,480.987854 
	C435.122345,480.919891 437.917236,478.070740 437.991547,472.063843 
	C438.047089,467.573608 438.029449,463.082489 438.062653,458.591919 
	C438.064972,458.280548 438.219513,457.970306 438.396790,457.312500 
	C443.341949,457.312500 448.377838,457.312500 453.691956,457.312500 
	C453.691956,470.353333 453.691956,483.267181 453.691956,496.999756 
	C442.717529,496.999756 431.657776,496.999756 420.113098,496.999756 
z"/>
<path fill="#FACA52" opacity="1.000000" stroke="none" 
	d="
M343.057800,432.021637 
	C346.385376,408.337311 368.326660,386.849335 389.674500,386.075836 
	C389.674500,391.178192 389.674500,396.279144 389.674500,401.665649 
	C373.519287,406.007080 363.016327,416.302368 358.775360,432.456482 
	C353.409210,432.456482 348.285706,432.456482 343.057800,432.021637 
z"/>
<path fill="#FBCA53" opacity="1.000000" stroke="none" 
	d="
M356.123230,173.868896 
	C348.878113,165.474960 344.428711,156.187103 342.814972,145.250671 
	C348.243774,145.250671 353.368408,145.250671 358.705200,145.250671 
	C362.984436,161.588791 373.458191,171.920120 389.809174,176.307007 
	C389.809174,181.479004 389.809174,186.454880 389.809174,192.104797 
	C376.250916,190.149536 365.359924,183.964767 356.123230,173.868896 
z"/>
<path fill="#F9C952" opacity="1.000000" stroke="none" 
	d="
M193.241821,305.488281 
	C192.238464,306.121246 191.530350,306.513672 190.370483,307.156494 
	C190.370483,295.021515 190.370483,283.250458 190.370483,271.006622 
	C196.731750,274.011841 200.391266,278.988220 201.536240,285.657410 
	C202.920349,293.719360 200.014099,300.272858 193.241821,305.488281 
z"/>
<path fill="#D84352" opacity="1.000000" stroke="none" 
	d="
M448.873108,200.960571 
	C450.785278,201.063324 452.216949,201.165985 453.759644,201.276611 
	C453.759644,206.538147 453.759644,211.438248 453.759644,216.651367 
	C448.537018,216.651367 443.521423,216.651367 438.248840,216.651367 
	C438.248840,211.552750 438.248840,206.648087 438.248840,200.960464 
	C441.605377,200.960464 444.999023,200.960464 448.873108,200.960571 
z"/>
<path fill="#DA4453" opacity="1.000000" stroke="none" 
	d="
M382.001007,493.791199 
	C381.998810,489.373962 381.998810,485.435883 381.998810,481.256897 
	C387.384796,481.256897 392.298737,481.256897 397.600586,481.256897 
	C397.600586,486.247650 397.600586,491.281555 397.600586,496.975006 
	C393.098022,496.975006 388.517883,497.088196 383.955536,496.854248 
	C383.262421,496.818695 382.651917,495.171906 382.001007,493.791199 
z"/>
<path fill="#DA4453" opacity="1.000000" stroke="none" 
	d="
M357.040039,496.998657 
	C354.591400,496.998657 352.625885,496.998657 350.330811,496.998657 
	C350.330811,491.641449 350.330811,486.609161 350.330811,481.286987 
	C355.325012,481.286987 360.241760,481.286987 365.579102,481.286987 
	C365.579102,486.179749 365.579102,491.216370 365.579102,496.998657 
	C363.014801,496.998657 360.268951,496.998657 357.040039,496.998657 
z"/>
<path fill="#DA4453" opacity="1.000000" stroke="none" 
	d="
M322.164185,481.001831 
	C326.251984,481.001495 329.863068,481.001495 333.728302,481.001495 
	C333.728302,486.369415 333.728302,491.286285 333.728302,496.602875 
	C328.775818,496.602875 323.739716,496.602875 318.023376,496.602875 
	C318.023376,492.139679 317.858643,487.553436 318.187622,483.002899 
	C318.241638,482.255585 320.466125,481.665131 322.164185,481.001831 
z"/>
<path fill="#DA4453" opacity="1.000000" stroke="none" 
	d="
M292.079163,496.998474 
	C289.963562,496.998444 288.326263,496.998444 286.345367,496.998444 
	C286.345367,491.668182 286.345367,486.634705 286.345367,481.299011 
	C291.428101,481.299011 296.460938,481.299011 301.746674,481.299011 
	C301.746674,486.403961 301.746674,491.321045 301.746674,496.998474 
	C298.706726,496.998474 295.632080,496.998474 292.079163,496.998474 
z"/>
<path fill="#DA4453" opacity="1.000000" stroke="none" 
	d="
M269.902161,495.690796 
	C264.814606,496.555756 259.793457,496.950256 254.371964,497.376221 
	C254.371964,491.720612 254.371964,486.687439 254.371964,481.322906 
	C259.381470,481.322906 264.413513,481.322906 269.968597,481.322906 
	C269.968597,486.028381 269.968597,490.624390 269.902161,495.690796 
z"/>
<path fill="#DA4453" opacity="1.000000" stroke="none" 
	d="
M227.123535,496.998566 
	C225.204437,496.903015 223.765976,496.807556 222.193649,496.703247 
	C222.193649,491.448792 222.193649,486.534760 222.193649,481.311096 
	C227.410675,481.311096 232.442459,481.311096 237.738892,481.311096 
	C237.738892,486.378204 237.738892,491.295471 237.738892,496.998688 
	C234.406998,496.998688 231.005585,496.998688 227.123535,496.998566 
z"/>
<path fill="#DA4453" opacity="1.000000" stroke="none" 
	d="
M198.962646,496.998230 
	C195.855545,496.998230 193.232056,496.998230 190.306427,496.998230 
	C190.306427,491.589508 190.306427,486.556946 190.306427,481.260864 
	C195.382629,481.260864 200.300583,481.260864 205.611969,481.260864 
	C205.611969,486.232330 205.611969,491.270081 205.611969,496.998230 
	C203.618210,496.998230 201.532227,496.998230 198.962646,496.998230 
z"/>
<path fill="#DA4453" opacity="1.000000" stroke="none" 
	d="
M189.999725,92.835846 
	C189.999374,88.747856 189.999374,85.136597 189.999374,81.269852 
	C195.361542,81.269852 200.279068,81.269852 205.597534,81.269852 
	C205.597534,86.217758 205.597534,91.255226 205.597534,96.975632 
	C201.137909,96.975632 196.552231,97.140442 192.002258,96.811440 
	C191.254440,96.757370 190.663513,94.533592 189.999725,92.835846 
z"/>
<path fill="#D84352" opacity="1.000000" stroke="none" 
	d="
M438.515625,440.459167 
	C438.182465,435.338135 438.182465,430.551147 438.182465,425.362427 
	C443.208710,425.362427 448.232544,425.362427 453.616516,425.362427 
	C453.616516,430.292175 453.616516,435.314972 453.616516,440.793274 
	C448.653046,440.793274 443.750916,440.793274 438.515625,440.459167 
z"/>
<path fill="#DA4453" opacity="1.000000" stroke="none" 
	d="
M237.494598,96.507744 
	C232.356949,96.838524 227.558731,96.838524 222.379517,96.838524 
	C222.379517,91.746918 222.379517,86.711090 222.379517,81.333633 
	C227.357117,81.333633 232.391937,81.333633 237.834061,81.333633 
	C237.834061,86.335159 237.834061,91.256058 237.494598,96.507744 
z"/>
<path fill="#DA4453" opacity="1.000000" stroke="none" 
	d="
M254.003387,85.165680 
	C253.849396,82.530594 253.934509,80.792496 256.990906,80.952469 
	C261.101044,81.167587 265.230896,81.005821 269.672913,81.005821 
	C269.672913,86.374832 269.672913,91.407639 269.672913,96.721527 
	C264.650757,96.721527 259.733521,96.721527 254.003036,96.721527 
	C254.003036,93.102341 254.003036,89.372124 254.003387,85.165680 
z"/>
<path fill="#D84352" opacity="1.000000" stroke="none" 
	d="
M437.995361,404.822144 
	C437.994965,400.740356 437.994965,397.133942 437.994965,393.250061 
	C443.442383,393.250061 448.460266,393.250061 453.723999,393.250061 
	C453.723999,398.401886 453.723999,403.304779 453.723999,408.940308 
	C449.137268,408.940308 444.566681,409.106995 440.032288,408.776855 
	C439.273041,408.721588 438.670654,406.511780 437.995361,404.822144 
z"/>
<path fill="#DA4453" opacity="1.000000" stroke="none" 
	d="
M296.880249,96.998276 
	C293.115570,96.998360 289.832855,96.998360 286.281494,96.998360 
	C286.281494,91.662743 286.281494,86.744942 286.281494,81.412323 
	C291.183167,81.412323 296.221069,81.412323 301.632721,81.412323 
	C301.632721,86.289497 301.632721,91.321625 301.632721,96.715607 
	C300.230865,96.808365 298.796539,96.903275 296.880249,96.998276 
z"/>
<path fill="#DA4453" opacity="1.000000" stroke="none" 
	d="
M332.689484,81.098740 
	C333.553406,86.185341 333.947083,91.205063 334.372498,96.629387 
	C328.716949,96.629387 323.680939,96.629387 318.319824,96.629387 
	C318.319824,91.616493 318.319824,86.583176 318.319824,81.031868 
	C323.026794,81.031868 327.623016,81.031868 332.689484,81.098740 
z"/>
<path fill="#DA4453" opacity="1.000000" stroke="none" 
	d="
M365.992706,84.211357 
	C365.994812,88.629105 365.994812,92.567970 365.994812,96.745544 
	C360.598328,96.745544 355.681366,96.745544 350.379700,96.745544 
	C350.379700,91.748978 350.379700,86.711952 350.379700,81.027390 
	C354.887360,81.027390 359.470734,80.914124 364.036346,81.148140 
	C364.730103,81.183701 365.341248,82.830772 365.992706,84.211357 
z"/>
<path fill="#DA4453" opacity="1.000000" stroke="none" 
	d="
M382.504211,81.491440 
	C387.637848,81.160660 392.431915,81.160660 397.605316,81.160660 
	C397.605316,86.258644 397.605316,91.292862 397.605316,96.665878 
	C392.622223,96.665878 387.592468,96.665878 382.164642,96.665878 
	C382.164642,91.658958 382.164642,86.740585 382.504211,81.491440 
z"/>
<path fill="#D84352" opacity="1.000000" stroke="none" 
	d="
M445.995300,360.960449 
	C448.761566,360.960419 451.048523,360.960419 453.650269,360.960419 
	C453.650269,366.366577 453.650269,371.386230 453.650269,376.687012 
	C448.588165,376.687012 443.688843,376.687012 438.390198,376.687012 
	C438.390198,371.722229 438.390198,366.697693 438.390198,360.960449 
	C440.697968,360.960449 443.106964,360.960449 445.995300,360.960449 
z"/>
<path fill="#D84352" opacity="1.000000" stroke="none" 
	d="
M450.781036,328.964661 
	C452.157318,329.796173 453.777466,330.578827 453.833710,331.461212 
	C454.105316,335.721985 453.956055,340.009583 453.956055,344.623230 
	C448.595795,344.623230 443.580597,344.623230 438.276672,344.623230 
	C438.276672,339.609131 438.276672,334.703857 438.276672,328.961761 
	C442.203766,328.961761 446.253937,328.961761 450.781036,328.964661 
z"/>
<path fill="#D84352" opacity="1.000000" stroke="none" 
	d="
M453.968933,303.078247 
	C453.968933,306.499115 453.968933,309.442749 453.968933,312.669037 
	C448.625946,312.669037 443.725983,312.669037 438.408020,312.669037 
	C438.408020,307.760406 438.408020,302.734863 438.408020,297.330933 
	C443.275940,297.330933 448.296570,297.330933 453.968933,297.330933 
	C453.968933,299.088104 453.968933,300.844574 453.968933,303.078247 
z"/>
<path fill="#D84352" opacity="1.000000" stroke="none" 
	d="
M446.953735,136.997772 
	C449.395966,136.997772 451.355774,136.997772 453.637390,136.997772 
	C453.637390,142.360443 453.637390,147.372299 453.637390,152.677643 
	C448.611969,152.677643 443.715698,152.677643 438.404846,152.677643 
	C438.404846,147.759003 438.404846,142.740616 438.404846,136.997772 
	C440.992279,136.997772 443.731812,136.997772 446.953735,136.997772 
z"/>
<path fill="#D84352" opacity="1.000000" stroke="none" 
	d="
M448.861633,280.965210 
	C445.108582,280.965271 441.834686,280.965271 438.284607,280.965271 
	C438.284607,275.499786 438.284607,270.478241 438.284607,265.207703 
	C443.405334,265.207703 448.309387,265.207703 453.592834,265.207703 
	C453.592834,270.237213 453.592834,275.261261 453.592834,280.666382 
	C452.198181,280.764404 450.769501,280.864777 448.861633,280.965210 
z"/>
<path fill="#D84352" opacity="1.000000" stroke="none" 
	d="
M437.998291,181.773941 
	C437.995758,177.362778 437.995758,173.429123 437.995758,169.234802 
	C443.350677,169.234802 448.255646,169.234802 453.566986,169.234802 
	C453.566986,174.178909 453.566986,179.205002 453.566986,184.939178 
	C449.103088,184.939178 444.536102,185.053680 439.987122,184.819077 
	C439.282745,184.782761 438.660858,183.147369 437.998291,181.773941 
z"/>
<path fill="#D84352" opacity="1.000000" stroke="none" 
	d="
M453.854401,247.642731 
	C448.773865,248.510696 443.771606,248.914291 438.362854,249.350677 
	C438.362854,243.660828 438.362854,238.637192 438.362854,233.284332 
	C443.373932,233.284332 448.392822,233.284332 453.932648,233.284332 
	C453.932648,238.007416 453.932648,242.592896 453.854401,247.642731 
z"/>
<path fill="#D34250" opacity="1.000000" stroke="none" 
	d="
M165.998505,497.000092 
	C165.551758,496.345886 165.188995,495.419312 165.482605,495.104126 
	C167.937057,492.469330 170.512131,489.946869 173.618805,486.818573 
	C173.618805,490.507477 173.618805,493.468994 173.618805,497.011108 
	C171.217346,497.011108 168.802032,497.011108 165.998505,497.000092 
z"/>
<path fill="#050102" opacity="1.000000" stroke="none" 
	d="
M342.856445,268.760803 
	C348.702393,263.631104 351.971619,263.704742 357.252625,268.912415 
	C361.639038,273.237946 366.008942,277.581421 370.319641,281.982117 
	C375.225006,286.989838 375.306549,290.847168 370.531097,295.772919 
	C366.011719,300.434570 361.418030,305.027679 356.754242,309.544800 
	C351.944641,314.203156 348.052307,314.221710 343.334045,309.628326 
	C338.562439,304.982971 333.846069,300.277527 329.212677,295.494568 
	C324.762482,290.900757 324.760529,287.047516 329.198181,282.460175 
	C333.596619,277.913361 338.128967,273.496063 342.856445,268.760803 
M348.996826,285.354248 
	C347.902740,286.534393 346.808655,287.714539 345.863098,288.734497 
	C347.258514,290.582458 348.413940,292.112549 349.758514,293.893127 
	C351.759186,291.801178 353.075836,290.424438 354.775177,288.647522 
	C352.728882,287.187866 351.178192,286.081696 348.996826,285.354248 
z"/>
<path fill="#070203" opacity="1.000000" stroke="none" 
	d="
M398.829742,448.777954 
	C392.470947,447.662476 389.452667,444.357422 390.126526,439.710938 
	C390.757446,435.360321 394.633057,432.376099 399.081573,432.956238 
	C403.033112,433.471588 405.501312,435.856659 405.943054,439.739075 
	C406.500946,444.642761 403.872711,447.540894 398.829742,448.777954 
z"/>
<path fill="#090304" opacity="1.000000" stroke="none" 
	d="
M390.101501,136.236908 
	C391.363220,131.176712 394.339966,128.582657 399.201935,129.196304 
	C403.024292,129.678757 405.466034,132.171219 405.988434,136.125168 
	C406.565155,140.490067 403.426514,144.439148 399.094421,144.972900 
	C394.289642,145.564896 391.044067,142.564987 390.101501,136.236908 
z"/>
<path fill="#030101" opacity="1.000000" stroke="none" 
	d="
M73.055016,424.236176 
	C81.995766,403.691101 99.330986,392.314148 120.089577,393.065979 
	C139.150955,393.756287 156.415436,406.413330 163.008087,424.530609 
	C170.272049,444.492767 163.656052,466.699677 146.653107,479.426880 
	C129.945465,491.933014 107.151184,492.177124 90.219398,480.031128 
	C72.555702,467.360168 65.813362,445.731659 73.055016,424.236176 
M131.385254,470.012726 
	C132.700287,469.299072 134.067352,468.666290 135.322327,467.859222 
	C148.107864,459.637329 153.332260,443.369293 147.754242,429.242371 
	C142.245956,415.292023 127.159332,406.675598 112.792015,409.440094 
	C99.873436,411.925873 91.049080,419.495819 87.339989,432.062317 
	C83.682404,444.454346 86.804153,455.654022 96.354446,464.389252 
	C106.351845,473.533356 118.018631,475.402466 131.385254,470.012726 
z"/>
<path fill="#E95363" opacity="1.000000" stroke="none" 
	d="
M349.312164,285.164917 
	C351.178192,286.081696 352.728882,287.187866 354.775177,288.647522 
	C353.075836,290.424438 351.759186,291.801178 349.758514,293.893127 
	C348.413940,292.112549 347.258514,290.582458 345.863098,288.734497 
	C346.808655,287.714539 347.902740,286.534393 349.312164,285.164917 
z"/>
<path fill="#D34250" opacity="1.000000" stroke="none" 
	d="
M131.033096,470.164673 
	C118.018631,475.402466 106.351845,473.533356 96.354446,464.389252 
	C86.804153,455.654022 83.682404,444.454346 87.339989,432.062317 
	C91.049080,419.495819 99.873436,411.925873 112.792015,409.440094 
	C127.159332,406.675598 142.245956,415.292023 147.754242,429.242371 
	C153.332260,443.369293 148.107864,459.637329 135.322327,467.859222 
	C134.067352,468.666290 132.700287,469.299072 131.033096,470.164673 
M94.078850,438.866699 
	C94.085884,440.363464 93.977676,441.871185 94.118492,443.355255 
	C95.097717,453.675446 102.760910,462.120026 113.195450,464.449219 
	C122.996300,466.636963 133.622177,461.854797 138.741470,452.952301 
	C143.927383,443.933899 142.874313,432.770294 135.846100,425.120850 
	C129.485764,418.198395 121.571388,415.458893 112.351723,417.811890 
	C101.904175,420.478271 96.074837,427.549469 94.078850,438.866699 
z"/>
<path fill="#020101" opacity="1.000000" stroke="none" 
	d="
M94.116158,438.442688 
	C96.074837,427.549469 101.904175,420.478271 112.351723,417.811890 
	C121.571388,415.458893 129.485764,418.198395 135.846100,425.120850 
	C142.874313,432.770294 143.927383,443.933899 138.741470,452.952301 
	C133.622177,461.854797 122.996300,466.636963 113.195450,464.449219 
	C102.760910,462.120026 95.097717,453.675446 94.118492,443.355255 
	C93.977676,441.871185 94.085884,440.363464 94.116158,438.442688 
M122.738823,434.612762 
	C117.180443,431.983521 112.713890,433.206635 110.676979,437.915771 
	C108.857758,442.121613 110.908470,446.878418 115.303398,448.464386 
	C118.856071,449.746460 121.959526,448.785278 124.188568,445.876495 
	C127.037735,442.158661 126.511208,438.469086 122.738823,434.612762 
z"/>
<path fill="#C9344A" opacity="1.000000" stroke="none" 
	d="
M123.041367,434.857788 
	C126.511208,438.469086 127.037735,442.158661 124.188568,445.876495 
	C121.959526,448.785278 118.856071,449.746460 115.303398,448.464386 
	C110.908470,446.878418 108.857758,442.121613 110.676979,437.915771 
	C112.713890,433.206635 117.180443,431.983521 123.041367,434.857788 
z"/>
</svg>